<?xml version="1.0" encoding="UTF-8"?><svg id="Layer_2" xmlns="http://www.w3.org/2000/svg" viewBox="0 0 115 115"><defs><style>.cls-1,.cls-2{fill:#f8f3ef;}.cls-3{fill:#e9c5a7;}.cls-4{fill:#fff;}.cls-5{fill:#efe3da;}.cls-6{fill:#ff7ba5;}.cls-7{fill:#ff8c1e;}.cls-8{fill:#661f49;}.cls-9{fill:#b85b3a;}.cls-10{fill:#3fa2ee;}.cls-11{fill:#89442c;}.cls-12{fill:#2f170e;}.cls-13{fill:#4d1737;}.cls-14{fill:#7ac243;}.cls-15{fill:#4f1137;}.cls-2{opacity:.81;}</style></defs><g id="forside_temaer"><g id="_2_web"><g><g><circle class="cls-4" cx="57.5" cy="57.5" r="57.5"/><circle class="cls-5" cx="57.5" cy="57.5" r="53.5"/><circle class="cls-4" cx="57.5" cy="57.5" r="49.5"/></g><g><ellipse class="cls-3" cx="58.04" cy="49.22" rx="28.58" ry="16.45"/><path class="cls-2" d="M85,48c-.29,.21-2.4,1.7-5,1-1.67-.45-2.65-1.56-3-2-.42-.89-.94-2.27-1-4-.06-1.76,.41-2.24,0-3-.82-1.51-3.32-.73-6-2-1.18-.56-2.68-1.65-4-4,1.28,.27,2.61,.6,4,1,3.02,.87,5.69,1.93,8,3,1.68,1.78,3.06,3.12,4,4,1.58,1.49,2.66,2.4,3,4,.17,.82,.09,1.53,0,2Z"/><path class="cls-8" d="M81.42,82.99H32.93c-2.31-11.55-4.62-23.09-6.93-34.64h62.35c-2.31,11.55-4.62,23.09-6.93,34.64Z"/><circle class="cls-9" cx="59.77" cy="31.9" r="7.79"/><ellipse class="cls-11" cx="59.17" cy="27.87" rx="4.93" ry="2.03"/><path class="cls-12" d="M53.71,20.09c.33,.21,.65,.47,.91,.77,.33,.38,.68,.7,1.06,1.03,.55,.49,1.05,1.09,1.37,1.76,.31,.66,.53,1.34,.78,2.01,.2,.43,.4,.86,.54,1.32,.02,.06,.02,.12,.04,.18,.09,.13,.2,.26,.27,.41h1.14c-.04-1.09-.31-4.23-2.71-6.78-.79-.84-1.62-1.4-2.33-1.79-.09,.02-.17,.04-.26,.07-.29,.13-.56,.3-.82,.47h-.01c0,.1,.02,.19,.02,.28,0,.02,0,.14,0,.26Z"/><rect class="cls-15" x="34.66" y="48.35" width="1.73" height="34.64" transform="translate(-7.08 4.35) rotate(-6.38)"/><rect class="cls-15" x="55.44" y="48.35" width="1.73" height="34.64"/><rect class="cls-15" x="41.59" y="48.35" width="1.73" height="34.64" transform="translate(-2.7 1.82) rotate(-2.39)"/><rect class="cls-15" x="48.52" y="48.35" width="1.73" height="34.64" transform="translate(-2.69 2.11) rotate(-2.39)"/><rect class="cls-15" x="62.37" y="48.35" width="1.73" height="34.64" transform="translate(2.81 -2.59) rotate(2.4)"/><rect class="cls-15" x="77.96" y="48.35" width="1.73" height="34.64" transform="translate(11.01 -11.32) rotate(8.83)"/><rect class="cls-15" x="69.3" y="48.35" width="1.73" height="34.64" transform="translate(6.43 -6.26) rotate(5.35)"/><rect class="cls-6" x="39.86" y="37.96" width="1.73" height="5.2" rx=".5" ry=".5" transform="translate(22.88 -14.07) rotate(27.03)"/><rect class="cls-10" x="69.67" y="39.58" width="1.73" height="5.2" rx=".5" ry=".5" transform="translate(53.16 122.51) rotate(-108.68)"/><rect class="cls-10" x="48.89" y="34.39" width="1.73" height="5.2" rx=".5" ry=".5" transform="translate(-11.58 46.01) rotate(-45)"/><rect class="cls-6" x="61.01" y="41.32" width="1.73" height="5.2" rx=".5" ry=".5" transform="translate(35.8 -27.34) rotate(34.54)"/><rect class="cls-14" x="78.33" y="41.32" width="1.73" height="5.2" rx=".5" ry=".5" transform="translate(-11.27 39.96) rotate(-26.51)"/><rect class="cls-7" x="47.16" y="41.32" width="1.73" height="5.2" rx=".5" ry=".5" transform="translate(107.15 16.73) rotate(112.87)"/></g><path class="cls-13" d="M82,61c-1.02-2.59-1.63-3.05-2-3-1.6,.21,.58,10.04-4,15-1.94,2.1-5.75,4.04-14,3-1.94,.15-3.17,1.76-3,3,.18,1.32,1.98,2.61,4,2h16c1.21-2.93,2.52-7.01,3-12,.29-3.03,.22-5.74,0-8Z"/><path class="cls-1" d="M65.25,27c0,.4-.08,2.04-1.5,3.35-2.07,1.91-5.06,1.38-5.25,1.34-.94-.15-1.44-.15-1.5,0-.05,.12,.2,.35,.75,.67,.49,.23,1.26,.53,2.25,.67,.93,.13,1.72,.08,2.25,0,2.27-.73,3.76-2.35,3.75-4.03,0-.87-.41-1.57-.75-2.01Z"/></g></g></g></svg>