<?xml version="1.0" encoding="UTF-8"?><svg id="Layer_2" xmlns="http://www.w3.org/2000/svg" viewBox="0 0 115 115"><defs><style>.cls-1{fill:#eb6aa1;}.cls-2{fill:#fff;}.cls-3{fill:#efe3da;}.cls-4{fill:#ff72ad;}.cls-5{fill:#4d4d4d;}</style></defs><g id="forside_temaer"><g id="ux"><g><g><circle class="cls-2" cx="57.5" cy="57.5" r="57.5"/><circle class="cls-3" cx="57.5" cy="57.5" r="53.5"/><circle class="cls-2" cx="57.5" cy="57.5" r="49.5"/></g><g><path class="cls-5" d="M88.66,44.07c-.02-.33-.08-1.65-.65-3.26-.45-1.27-.96-2.01-1.3-2.61-2.17-3.76-.45-6.41-2.61-9.13-.44-.56-1.22-1.33-2.61-1.96-.58-.33-1.47-.82-2.61-1.3-1.86-.8-3.28-1.14-3.91-1.3-4.21-1.13-4.62-3.13-7.82-3.91-3.67-.89-4.17,1.48-9.13,1.3-4.69-.16-5.2-2.32-9.13-1.96-2.82,.26-3.6,1.48-7.82,3.26-1.39,.59-2.9,1.12-4.51,1.58-1.54,.34-3.08,.68-4.61,1.03-1.52,1.21-2.23,2.41-2.61,3.26-.84,1.92-.21,2.66-1.3,4.56-.66,1.15-1.28,1.55-1.3,2.61-.02,.82,.33,1.27,0,1.96-.21,.43-.55,.68-.65,1.3-.05,.33,0,.59,0,.65,.4,2.8-1.96,8.47-1.96,8.47-.88,2.12-1.83,5.41-1.96,10.43,1.53,.73,3.75,1.57,6.52,1.96,1.07,.15,2.09,.2,3.04,.2,.07,.04,.14,.07,.21,.08,.61,.14,2.69-.07,3.26,1.02,.29,.56,.13,1.34,0,1.96-.2,.95-.48,1.06-.65,1.96-.15,.78-.07,1.39,0,1.96,.18,1.43,.58,1.63,.65,2.61,.08,1.15-.44,1.28-.65,2.61-.31,1.93,.71,2.29,.65,4.56-.04,1.36-.41,1.38-.65,3.26-.14,1.09-.15,2.12,0,3.91,.28,3.29,.87,6.42,1.3,8.47,1.76,.01,4.46,.09,7.72,.45,5.78,.64,6.57,1.4,10.53,1.5,1.58,.04,5.64,.11,10.43-1.3,2.91-.86,4.54-1.81,8.47-2.61,1.9-.38,3.49-.56,4.56-.65,.41-2.22,.41-4.01,.32-5.25-.14-1.98-.46-2.39-.32-3.87,.21-2.17,1.03-2.63,1.3-4.56,.27-1.93-.3-3.25-.65-4.56-1.01-3.84,.1-6.98,.65-9.78,.02-.11,.04-.22,.06-.33,.8,0,1.42-.14,1.89-.32,1.44-.56,1.69-1.49,3.26-1.96,1.28-.38,1.9,.01,3.26,0,1.23-.01,3.01-.35,5.21-1.96-2.92-8.78-3.8-12.63-3.91-14.34Z"/><path class="cls-4" d="M88.11,44.16c-.02-.33-.08-1.61-.64-3.19-.44-1.24-.94-1.96-1.28-2.55-2.13-3.68-.44-6.28-2.55-8.93-.43-.54-1.19-1.31-2.55-1.91-.56-.33-1.44-.8-2.55-1.28-1.82-.78-3.22-1.11-3.83-1.28-4.12-1.1-4.52-3.06-7.66-3.83-3.59-.87-4.08,1.45-8.93,1.28-4.59-.16-5.09-2.27-8.93-1.91-2.76,.26-3.52,1.45-7.66,3.19-1.37,.58-2.84,1.1-4.42,1.55-1.51,.33-3.01,.67-4.52,1-1.49,1.18-2.19,2.36-2.55,3.19-.83,1.88-.21,2.6-1.28,4.47-.64,1.12-1.25,1.52-1.28,2.55-.02,.8,.33,1.24,0,1.91-.2,.42-.54,.67-.64,1.28-.05,.32,0,.57,0,.64,.4,2.74-1.91,8.3-1.91,8.3-.86,2.07-1.79,5.3-1.91,10.21,1.5,.72,3.67,1.54,6.38,1.91,1.05,.14,2.04,.2,2.98,.2,.07,.04,.14,.06,.21,.08,.59,.14,2.63-.07,3.19,1,.28,.54,.13,1.31,0,1.91-.19,.93-.47,1.04-.64,1.91-.15,.76-.07,1.36,0,1.91,.18,1.4,.57,1.6,.64,2.55,.08,1.13-.43,1.26-.64,2.55-.3,1.89,.7,2.24,.64,4.47-.04,1.33-.4,1.35-.64,3.19-.14,1.07-.15,2.08,0,3.83,.27,3.22,.85,6.29,1.28,8.3,1.73,.01,4.36,.09,7.56,.44,5.66,.62,6.43,1.37,10.31,1.47,1.54,.04,5.52,.11,10.21-1.28,2.85-.84,4.44-1.77,8.3-2.55,1.86-.38,3.41-.55,4.47-.64,.4-2.17,.4-3.92,.31-5.14-.13-1.94-.45-2.34-.31-3.79,.2-2.12,1.01-2.58,1.28-4.47,.27-1.89-.3-3.18-.64-4.47-.99-3.75,.1-6.84,.64-9.57,.02-.1,.04-.21,.06-.32,.78,0,1.39-.14,1.85-.31,1.41-.55,1.66-1.46,3.19-1.91,1.26-.37,1.86,.01,3.19,0,1.2-.01,2.95-.34,5.1-1.91-2.86-8.6-3.72-12.37-3.83-14.04Z"/><path class="cls-1" d="M31.32,37.14l-1.91-1.91c-.92,.74-1.2,1.42-1.28,1.91-.07,.47,.05,.67,0,1.28-.08,.92-.45,1.55-.64,1.91-.65,1.28-.49,2.4-.64,3.83-.24,2.38-1.08,3.41-1.91,5.74-.64,1.81-1.33,4.54-1.28,8.3,.18,.24,.81,1.04,1.91,1.28,.53,.11,.98,.06,1.28,0-.08-1.53,.11-3.4,1.33-4.72,1.3-1.41,2.86-1.21,3.13-2.3,.35-1.35-1.94-2.1-2.55-5.1-.23-1.14-.11-2.03,0-2.55,.16-.72,.32-1.48,.94-2.07,.72-.69,1.49-.6,1.61-1.12,.1-.43-.38-.71-.64-1.28-.27-.59-.32-1.56,.64-3.19Z"/><path class="cls-1" d="M33.87,51.14c-.35-2.21-.58-5.72-.07-11.34-.22-.2-.32-.5-.3-.8-.34-.04-.58-.23-.7-.48l-.21-.1v4.47c0,4.46,0,4.45,0,4.47,.14,5.23,1.06,6.54,.64,10.21-.07,.59-.16,1.12-.25,1.6,.02,.11,.04,.21,.05,.32,.04,.31,.1,.62,.09,.94,.1-.03,.2-.06,.33-.06,.36,0,.61,.16,.76,.39h.3c.02-.73,.04-1.84,0-3.19-.11-3.28-.52-5.69-.64-6.42Z"/><path class="cls-1" d="M54.93,82.45c-10.41-7.13-14.11-17.53-15.31-21.06-2.19-6.43-2.36-11.89-2.55-17.87-.17-5.24,.18-9.65,.58-12.88,2-.44,5.14-1.42,10.27-3.71-.64-1.06-1.28-2.13-1.91-3.19-2.37,1.38-4.39,2.13-5.74,2.55-3.63,1.13-5.63,.9-7.66,2.55-1.49,1.22-2.2,2.8-2.55,3.83,.43,.85,.85,1.7,1.28,2.55,.41-.9,1.17-2.21,2.55-3.19,.2-.14,.41-.27,.61-.38-.75,5.35-1.05,12.02,.03,19.52,.56,3.83,1.64,10.92,5.74,19.14,2.38,4.77,5.01,8.39,7.02,10.85,.92,.73,2.21,1.66,3.83,2.55,2.72,1.5,5.01,2.16,6.38,2.55,2.01,.57,4.84,1.17,8.3,1.28-2.67-.77-6.66-2.23-10.85-5.1Z"/><path class="cls-4" d="M49.82,79.9c.07,.23,.13,.54,0,.64-.24,.19-.99-.41-1.28-.64-1.05-.83-2.69-2.06-5.1-3.83-1-1.19-2.21-2.89-3.19-5.1-.62-1.4-1.02-2.71-1.28-3.83l5.74,7.66,3.83,3.83,1.28,1.28Z"/><path class="cls-1" d="M35.78,66.5l.64-1.28c1.28,2.34,2.55,4.68,3.83,7.02-1.06-.85-2.13-1.7-3.19-2.55l-1.28-3.19Z"/><path class="cls-1" d="M66.41,90.74c-6.18-.47-10.95-1.97-14.04-3.19-3.62-1.43-6.7-2.69-9.57-5.74-2.61-2.77-3.85-5.76-4.47-7.66-1.05-1.59-1.28-2.9-1.28-3.83,0-1.53,.62-2.62,0-3.83-.33-.65-.87-1.05-1.28-1.28-.27,1.41-.16,2.48,0,3.19,.27,1.22,.7,1.61,.64,2.55-.08,1.28-.93,1.49-1.28,2.55-.93,2.86,3.3,7.14,3.78,7.61,.3,.45,1.42,2.03,1.96,2.6,1.08,1.13,2.3,1.57,3.19,1.91,1.98,.75,5.64,2.21,10.49,4.11-.92-.09-1.86-.18-2.83-.28-2.92-.3-4.44-.48-6.38-1.28-1.64-.67-2.52-1.34-4.47-1.91-1.83-.54-3.41-.64-4.47-.64-.17,1.13-.28,2.68,0,4.47,.15,.98,.39,1.83,.64,2.55h2.55c-.85-1.28-1.7-2.55-2.55-3.83,.07-.24,.15-.69,.11-1.24,4.59,1.62,10.61,3.21,17.75,3.79,4.27,.35,8.14,.27,11.49,0,.47-.33,.68-.54,.64-.64-.04-.08-.25-.08-.64,0Z"/><path class="cls-1" d="M75.98,69.69h-1.91l1.91-5.1h.64l-.64,5.1Z"/><path class="cls-1" d="M76.62,34.59c.06-.6-.22-1.11-.64-1.28-.26-.1-.51-.04-.64,0,0,.15,0,.42,0,.77,0,0,0,1.85,0,3.7,.03,5.43,.82,11.29,0,17.87-.77,6.16-2.75,11.27-3.83,14.04-.72,1.85-1.4,3.37-1.91,4.47l1.91-1.91c2.75-4.13,3.91-7.74,4.47-10.21,.63-2.83,.64-7.63,.64-17.23,0-.02,0-3.96,0-5.74v-4.47Z"/><path class="cls-1" d="M78.54,46.08h-.64c-.21,4.89-.43,9.78-.64,14.68h1.28v-14.68Z"/><path class="cls-5" d="M49.18,88.83c-.99-.14-2.06-.34-3.19-.64-2.58-.67-4.71-1.63-6.38-2.55l-3.19-1.91c-.07-.23-.13-.54,0-.64,.26-.2,1.11,.51,1.28,.64,.86,.69,3.5,1.96,10.85,4.47l.64,.64Z"/><path class="cls-5" d="M47.91,83.09c-1.06-1.06-2.13-2.13-3.19-3.19-2.59-4.05-6.89-11.48-8.93-19.78-.07-.27-.68-3.79-1.91-10.85-.61-3.46-.9-5.23-.64-7.02,.25-1.7,.3-3.42,.64-5.1,.16-.81,.36-1.64,0-2.55-.41-1.03-1.31-1.61-1.91-1.91,.34,.12,.8,.31,1.28,.64,.63,.44,1.04,.93,1.28,1.28-.73,5.47-1.28,14.99,1.91,26.16,3.03,10.59,8.12,18.09,11.49,22.33Z"/><path class="cls-5" d="M31.32,32.68h.64c.3,.06,.83,.21,1.28,.64,.53,.51,.73,1.21,.64,1.28-.13,.08-.84-.99-1.13-.85-.14,.07-.14,.41-.15,.85,0,.38,.05,.46,0,.64-.05,.19-.21,.43-.64,.64l-.64,.64c-.32-.96-.19-1.55,0-1.91,.19-.36,.48-.56,.49-.96,.01-.4-.25-.73-.49-.95Z"/><path class="cls-5" d="M29.4,34.59c.22-1.56,.46-1.9,.64-1.91,.43-.02,.55,1.92,1.91,3.83,.66,.92,1.39,1.53,1.91,1.91v1.28c-1.06-1.06-2.13-2.13-3.19-3.19l-1.28-1.28v-.64Z"/><path class="cls-5" d="M69.6,22.06c-1.89,6.16-7.1,10.18-12.44,9.97-5.2-.19-8.45-4.29-8.99-4.99-1.15-1.66-2.3-3.32-3.46-4.99,.93-.84,2.27-1.81,3.46-1.42,1.06,.34,1.32,1.54,2.07,2.85,1.35,2.34,4.14,4.82,6.91,4.99,2.76,.17,5.95-1.94,7.6-4.27,.83-1.18,1.45-2.66,2.77-2.85,.82-.12,1.57,.32,2.07,.71Z"/><path class="cls-4" d="M68.97,22.47c-2.65,5.47-7.26,8.92-11.49,8.93-3.81,0-6.38-1.91-6.38-1.91-.73-.54-1.17-1.06-1.91-1.91-1.07-1.24-2.5-3.12-3.83-5.74,.5-.43,.94-.59,1.28-.64,.52-.08,1.27,0,1.28,0h0c.32,.61,.77,1.42,1.39,2.33,0,0,.39,.57,.75,1.05,.88,1.15,3.21,4.22,6.38,4.47,1.22,.1,2.33-.19,2.33-.19,.43-.11,.77-.24,1.91-.64h0c.4-.18,3.04-1.43,4.47-3.19,.7-.87,1.06-1.31,1.28-1.91,.21-.59,.23-1.03,.64-1.28,.37-.23,.89-.19,1.28,0,.39,.19,.57,.51,.64,.64Z"/><path class="cls-5" d="M58.76,85c-.15,.02-.38,.04-.64,0-.93-.14-1.5-.84-1.91-1.28-.83-.88-.85-.52-2.55-1.91-1.86-1.51-3.42-3.22-4.47-4.47-1.59-1.66-3.37-3.77-5.1-6.38-1.69-2.54-2.92-4.95-3.83-7.02-.06-.29-.1-.59,0-.64,.15-.07,.56,.52,.64,.64,.31,.45,.46,.67,.64,1.28,.19,.67,1.91,3.31,7.02,10.21,1.55,1.66,3.24,3.37,5.1,5.1,0,0,2.49,2.59,3.67,3.27,.07,.04,.4,.23,.79,.56,.3,.25,.51,.49,.64,.64Z"/><path class="cls-5" d="M75.98,79.26l-1.91,3.83c-1.06,1.06-2.13,2.13-3.19,3.19h0c-.06,.28-.1,.59,0,.64,.13,.06,.44-.38,.64-.64,.71-.93,1.05-1.01,1.91-1.91,.51-.54,1.21-1.36,1.91-2.55,.17-.2,.5-.64,.64-1.28,.12-.56,.06-1.02,0-1.28Z"/><path class="cls-5" d="M76.62,72.88c-.97,2.33-2.22,4.93-3.83,7.66-1.27,2.16-2.57,4.07-3.83,5.74h.64l4.47-7.02c.85-2.13,1.7-4.25,2.55-6.38Z"/><path class="cls-5" d="M75.98,62.03c-1.2,3.2-2.02,5.82-2.55,7.66-.74,2.57-1.01,3.89-1.91,5.74-.13,.26-.33,.66-1.91,3.83l-.64,1.28c-.29,.45-.55,.76-.64,1.28-.04,.27-.02,.49,0,.64,.15-.15,.37-.37,.64-.64,.45-.44,.53-.51,.64-.64,.42-.49,.56-1.02,.64-1.28,.37-1.22,1.06-1.94,1.91-3.83,.38-.85,.89-2.13,1.28-3.83,.82-3.76,1.47-5.49,1.91-6.38,.12-.23,.48-.92,.64-1.91,.13-.81,.06-1.5,0-1.91Z"/><path class="cls-5" d="M79.18,35.87c-.32-.1-.54-.04-.64,0-.51,.2-.82,.98-.64,1.91-.18,1.13-.42,2.66-.64,4.47-.24,1.97-.52,4.22-.64,7.02-.08,1.83-.02,2.18,0,7.66,0,1.9,0,3.46,0,4.47l.64,.64c.02-1.68,.04-4.35,0-7.66-.05-4.25-.14-5.49,0-8.3,.16-3.12,.47-5.58,1.28-8.3,.24-.8,.47-1.45,.64-1.91Z"/><path class="cls-5" d="M81.73,58.84c-.71,.43-1.56,.88-2.55,1.28-.68,.27-1.33,.48-1.91,.64v.64l1.91-.64,1.91-.64,.64-1.28Z"/><path class="cls-5" d="M90.02,55.65c-2.55,.85-5.1,1.7-7.66,2.55v.64l7.66-1.91v-1.28Z"/><path class="cls-5" d="M82.37,35.87l-.64,1.28c-.21,7.87-.43,15.74-.64,23.61h.64c.21-8.3,.43-16.59,.64-24.89Z"/><path class="cls-5" d="M84.28,33.31c.06-.28,.1-.59,0-.64-.23-.11-1.01,1.33-1.98,2.62-.65,.86-1.64,1.98-3.13,3.13-.25,.29-.48,.5-.64,.64-.38,.32-.57,.39-.64,.64,0,0-.02,.07,0,.64h0c.2-.21,.42-.43,.64-.64,1.07-1.03,2.15-1.86,3.19-2.55l2.55-3.83Z"/><path class="cls-5" d="M61.31,26.93c-1.08,.31-2.61,.64-4.47,.64-1.12,0-2.68-.12-4.47-.64l-1.91-1.91c1.29,.51,3.02,1.04,5.1,1.28,3.27,.37,5.96-.16,7.66-.64l-1.91,1.28Z"/></g></g></g></g></svg>