<?xml version="1.0" encoding="UTF-8"?><svg id="Layer_2" xmlns="http://www.w3.org/2000/svg" xmlns:xlink="http://www.w3.org/1999/xlink" viewBox="0 0 115 115"><defs><style>.cls-1{fill:url(#linear-gradient);}.cls-2{fill:#f9f9f9;}.cls-3{fill:#f9faf6;}.cls-4{fill:#f8fbf7;}.cls-5{fill:#facd23;}.cls-6{fill:#000001;}.cls-7{fill:#f69808;}.cls-8{fill:#fafbf9;}.cls-9{fill:#fff;}.cls-10{fill:#efe3da;}.cls-11{fill:#7d7d7b;}.cls-12{fill:#803769;}.cls-13{fill:#803621;}.cls-14{fill:#a1a19e;}.cls-15{fill:#848080;}.cls-16{fill:#858080;}.cls-17{fill:#b59d99;}.cls-18{fill:#ba5b3f;}.cls-19{fill:#9c978f;}.cls-20{fill:#b25439;}.cls-21{fill:#b45741;}.cls-22{fill:#d97c5a;}.cls-23{fill:#c6c1bb;}.cls-24{fill:#dedddb;}.cls-25{fill:#c4b7af;}.cls-26{fill:#1d0418;}.cls-27{fill:#1c0418;}.cls-28{fill:#949393;}.cls-29{fill:#807d7c;}.cls-30{fill:#9c6450;}.cls-31{fill:#a34f30;}.cls-32{fill:#632713;}.cls-33{fill:#29221d;}.cls-34{fill:#541c40;}.cls-35{fill:#5e5f5a;}.cls-36{fill:url(#linear-gradient-2);}.cls-37{fill:#cc6f4e;opacity:.57;}.cls-38{fill:#b65a3e;opacity:.62;}.cls-39{fill:#dd8268;opacity:.82;}.cls-40{fill:#ba6649;opacity:.77;}.cls-41{fill:#a25034;opacity:.78;}.cls-42{fill:#a35437;opacity:.73;}.cls-43{fill:#020202;opacity:.27;}.cls-44{fill:#c96d4f;opacity:.63;}.cls-45{fill:#dda596;opacity:.67;}</style><linearGradient id="linear-gradient" x1="25.39" y1="75.79" x2="85.64" y2="44.84" gradientTransform="matrix(1, 0, 0, 1, 0, 0)" gradientUnits="userSpaceOnUse"><stop offset=".06" stop-color="#3c122b"/><stop offset=".16" stop-color="#3f132e"/><stop offset=".24" stop-color="#48183a"/><stop offset=".33" stop-color="#581f4d"/><stop offset=".38" stop-color="#65265c"/></linearGradient><linearGradient id="linear-gradient-2" x1="37.66" y1="35.83" x2="57.97" y2="30.04" xlink:href="#linear-gradient"/></defs><g id="forside_temaer"><g id="_3_ani"><g><g><circle class="cls-9" cx="57.5" cy="57.5" r="57.5"/><circle class="cls-10" cx="57.5" cy="57.5" r="53.5"/><circle class="cls-9" cx="57.5" cy="57.5" r="49.5"/></g><g><path class="cls-35" d="M88.23,82.12c-.37-1.09,.12-2.28,.47-3.38,.34-1.1,.45-2.58-.39-3.21-.46-.35-1.05-.3-1.6-.35-1.03-.09-2.04-.56-2.83-1.34-.14-.14-.29-.31-.31-.54-.02-.28,.17-.5,.22-.56,.46-.57,1-2.27,1.32-3.28,.81-2.54-.24-5.63-.25-5.7,0,0-1.11,.85-1.85,1.25-.31,.17-1.71,.69-3.45,.52-1.11-.11-2.37-.66-2.7-1.92-.34-1.32,.45-3.02-.38-4-.84-1-2.61-.16-3.28-1.33-.29-.5-.25-1.24-.65-1.64-.58-.58-1.42,.1-1.97,.72-1.34,1.52-2.78,2.91-4.31,4.14-.93,.75-2.34,1.35-3.04,2.39-.25,.37-.4,.82-.65,1.18-.62,.87-1.85,1.36-2.68,1.9-1.06,.68-2.12,1.37-3.18,2.06-2.12,1.37-4.24,2.75-6.36,4.12-1.52,.73-3.03,1.45-4.55,2.18-3.77,1.75-7.55,3.5-11.32,5.25-.26,.12-.54,.26-.71,.52-.21,.34-.2,.79-.21,1.21-.03,1.22-.32,2.43-.84,3.49-.23,.47-.52,.92-.65,1.44-.29,1.13,.17,2.25,.59,3.38,1.22,.75,2.54,1.4,3.84,1.94,1.54,.64,3.02,1.05,4.68,.67,1.47-.33,3.13-.75,4.28-1.76,.57-.5,.88-.96,1.19-1.65,.26-.58,.53-1.16,1.03-1.58,.7-.58,1.49-.44,2.03,.26,0,0,0,.01,0,.02,.2,.05,.4,.14,.59,.23,.56,.21,1.13,.39,1.67,.66,.19,.09,.33,.27,.43,.45,.03,0,.07,.01,.1,.02,1.84,.58,2.64,2.11,3.31,3.73,.33,.71,.58,1.39,.7,2.14,.14,.06,.29,.12,.43,.18,.07,.03,.15,.04,.23,.06,.13,0,.26,0,.39,0,.31-.06,.63-.12,.94-.2,.18-.04,.35-.06,.53-.08,2.65-14.68,3.89-29.57,5.61-29.55,.46,0,1.86,1.06,1.86,1.06,.49-.05,1.18-.07,1.98,.07,.64,.12,2.48,.45,3.78,1.92,1.23,1.4,.58,2.26,2.03,5.18,.61,1.22,1.52,2.23,1.97,3.55,.5,1.48,.35,3.17-.04,4.7-.05,.18-.32,1.03-.58,1-.23-.03-.24-.72-.52-1.36-.25-.56-.76-1.2-1.9-1.63-.18,.84-.33,1.91-.33,3.17,0,2.11,.44,3.79,.81,4.86,1.36-.76,2.04-.61,2.41-.32,.59,.46,.52,1.39,1.36,2.02,.61,.02,1.22,.03,1.85,.18,.63,.15,1.26,.34,1.86,.57,.42,.16,.79,.34,1.15,.52,.2,.06,.41,.1,.61,.18,.84,.34,1.65,.72,2.47,1.11,.35,.21,.64,.49,.88,.8,.16,.07,.31,.13,.47,.2,.03,0,.06,.01,.08,.01,.21-.16,.36-.38,.41-.69,.2-1.37-1.68-1.92-1.95-3.28-.17-.87,.42-1.71,1.1-2.1,.67-.39,1.44-.5,2.14-.85,.69-.35,1.35-1.07,1.32-1.96-.05-1.19-1.25-1.84-1.63-2.95Z"/><path class="cls-22" d="M46.41,75.06c.16,1.02,.36,2.05,.76,2.97,.34,.79,.82,1.49,1.29,2.19,.56,.82,1.12,1.64,1.68,2.46,.41,.61,.85,1.23,1.46,1.54,.47,.23,1.26,.25,1.6-.28,.36-.56-.13-1.92-.25-2.6-.17-1.01-.33-2.01-.5-3.02-.29-1.76-.58-3.56-.41-5.34,.03-.3,.08-.6,.13-.9v-.04c-1.88,1.13-3.81,2.14-5.78,3.02Z"/><path class="cls-22" d="M77.21,74.93c-.11-.72-.28-1.45-.66-2.03-.38-.58-.99-.99-1.6-.91-.27,.04-.56,.16-.8,.01-.19-.12-.28-.37-.37-.6-.83-2.02-2.61-3.22-4.32-4.18-1.33-.75-2.69-1.43-4.12-1.83-2.48-.69-5.07-.51-7.61-.32-.98,.07-2.01,.16-2.83,.8-.83,.65-1.31,1.77-1.71,2.85-.4,1.08-.77,2.19-.98,3.35l1.2,11.62c.11,.5,.23,1,.37,1.48,1,3.38,3.07,6.15,5.22,8.67,.7,.82,1.43,1.62,2.26,2.25,.27,.12,.53,.26,.78,.41,.16,.09,.32,.19,.48,.29,.18,0,.35,.01,.53,.02,.45,.03,.9,.08,1.34,.18,.17,.04,.34,.1,.51,.17,.35-.08,.68-.2,1.03-.23,1.31-.1,2.5,1.01,3.72,.06h0c.12-.14,.25-.28,.37-.41,.22-.25,.44-.5,.66-.75,.07-.1,.14-.2,.2-.3,0-.01,.01-.03,.02-.05,.15-.52,.11-.23,0,0-.01,.04-.02,.08-.04,.12h.01c.04-.15,.1-.28,.15-.41,.11-.3,.22-.6,.34-.9,.07-.18,.15-.36,.23-.54,.02-.34-.01-.67-.16-.98-.19-.4-.52-.67-.84-.93-1.19-.96-2.38-1.93-3.57-2.89,.48-.4,1.11,.11,1.55,.57,.64,.66,1.34,1.27,2.14,1.6,.8,.33,1.73,.35,2.47-.14,.93-.61,1.41-1.9,1.47-3.14s-.26-2.47-.59-3.66c-.23-.8-.47-1.68-.24-2.48,.47,.66,.94,1.31,1.41,1.97,.08,.12,.18,.24,.31,.25,.11,0,.21-.08,.29-.18,.36-.42,.54-1,.7-1.57,.66-2.33,1.03-4.83,.68-7.24Z"/><path class="cls-44" d="M61.12,74.13c.06,.57,.11,1.14,.27,1.68,.13,.46,.32,.89,.51,1.32l2.2,4.91c.8,1.78,1.61,3.57,2.75,5.07,1.14,1.49,2.67,2.67,4.37,2.86,.68,.08,1.42-.03,1.96-.53,.35-.33,.6-.8,.73-1.31,.24-.95,.08-2.03-.42-2.83-.07,1.17-1.08,2.14-2.07,2-.45-.07-.86-.32-1.25-.59-.84-.58-1.64-1.24-2.38-1.98-.57-.58-1.11-1.21-1.6-1.88-1.87-2.58-3.04-5.75-4.19-8.86-.18-.5-.58-2.79-.85-2.76-.61,.08-.09,2.47-.05,2.92Z"/><path class="cls-8" d="M64.16,82.82c.16,0,.4-.08,.36-.27,.62,1.26,1.17,2.58,1.64,3.93-2.01,.98-4.41,.52-6.22-.91-1.07-.84-1.94-1.99-2.6-3.28-.36-.71-1.76-3.54-.45-3,.52,.21,1.13,1.08,1.62,1.44,.57,.42,1.18,.79,1.8,1.09,1.22,.59,2.53,.94,3.85,1.01Z"/><path class="cls-45" d="M64.66,85.69c.14,.22,.29,.44,.5,.58,.32,.22,.72,.18,1.09,.14,.15-.29-.18-.57-.38-.82-.33-.41-.3-.77-.51-1.31-.38-.99-.58-1.48-.78-1.6-.13-.08-.54-.25-1.31,.29,.16,.34,.73,1.67,1.4,2.72Z"/><path class="cls-39" d="M67.25,74.4c.25,1.7,.79,3.31,1.35,4.91,.83,2.37,1.75,4.84,3.46,6.43,.48,.44,1.25,.77,1.62,.21,.13-.19,.17-.45,.19-.69,.23-2.24-.55-4.45-1.37-6.49-.96-2.4-2.01-4.75-3.06-7.1-.37-.82-1.2-2.4-2.01-1.26-.61,.86-.32,2.99-.18,3.99Z"/><path class="cls-2" d="M67.8,67.58c.42-1.2,.84-2.41,1.47-3.48,.33-.57,.82-1.15,1.41-1.09,.07,0,.15,.04,.18,.11,.05,.14-.1,.25-.2,.33-.2,.16-.33,.44-.33,.73l1.75-.13c.16-.01,.37,.03,.37,.22,0,.15-.15,.24-.28,.26s-.28,.05-.34,.19c.3,.07,.6,.14,.87,.31s.5,.45,.57,.8c-.91,.04-1.79,.41-2.59,.93s-1.53,1.18-2.24,1.84c-.2,.19-.77,.71-.96,.28-.13-.29,.24-1.03,.33-1.29Z"/><path class="cls-2" d="M63.32,68.12c-.14-.23-.3-.45-.48-.64-.21-.23-.44-.42-.68-.6-.37-.29-.76-.55-1.15-.78-.07-.04-.15-.09-.23-.1-.38-.04-.59,.61-.97,.63,.05,.23,.23,.39,.41,.48s.39,.13,.57,.23c.5,.27,.8,.99,1.35,1.12,.2,.05,.41,.18,.58,.12,.06-.02,.56-.51,.6-.45Z"/><path class="cls-40" d="M62.87,87.97c.65-.06,1.3-.12,1.95-.06s1.3,.27,1.84,.69c-.29,.22-.66,.02-1-.06-.25-.06-.51-.05-.77-.04-.98,.04-1.96,.08-2.94,.11-.27,.01-1.12-.04-.48-.39,.4-.23,.95-.22,1.39-.27Z"/><path class="cls-31" d="M48.52,77.38c-.09-.48-.07-1.01,.14-1.43,.23-.47,.66-.75,1.07-1,.02-.2-.13-.36-.27-.46s-.31-.18-.4-.35-.04-.45,.12-.47c.39,.48,.87,.84,1.28,1.29s.78,1.03,.81,1.69c-.47-.17-.51-.99-.93-1.3-.33-.24-.8-.04-1.03,.34s-.26,.87-.23,1.33c.02,.43,.1,.88,.33,1.22,.11,.16,.25,.3,.32,.49,.05,.15,.02,.43-.14,.48-.14,.04-.42-.36-.5-.47-.29-.39-.49-.86-.59-1.36Z"/><path class="cls-32" d="M68.47,69.14c.5-.5,1.13-.79,1.76-.99,.31-.09,.67-.15,.9,.11,.04,.05,.08,.12,.08,.2,0,.09-.07,.17-.14,.21s-.16,.03-.24,.04c-.37,.02-.74,.12-1.08,.31-.42,.23-.8,.59-1.26,.63-.06,0-.12,0-.17-.03-.18-.13,.06-.38,.15-.48Z"/><path class="cls-32" d="M61.37,69.19c-.19-.17-.43-.25-.66-.33l-2.4-.78c-.06-.02-.14-.06-.14-.14,.11,.01,.21-.07,.31-.12,.16-.08,.35-.06,.52-.04,.41,.06,.82,.18,1.21,.35,.4,.18,.79,.42,1.16,.68,.22,.15,.43,.31,.61,.52,.13,.15,.02,.38-.15,.33s-.32-.36-.45-.48Z"/><path class="cls-32" d="M57.75,69.78c.13,.04,.27,.07,.41,.1l.71,.13c.41,.08,.82,.16,1.24,.18,.23,.01,.45,.01,.68,0,.05,0,.11,0,.15-.05,.12-.1,.06-.35-.08-.42s-.29-.03-.43,0c-.41,.1-.83,.11-1.25,.11-.16,0-.33,0-.49-.05-.15-.04-.29-.12-.42-.19l-1.32-.73c-.1-.05-.35-.15-.37,.07-.01,.14,.15,.18,.23,.24,.31,.23,.59,.47,.94,.59Z"/><path class="cls-42" d="M56.21,71.89c.19,.08,.39,.16,.59,.19,.3,.05,.61,0,.91-.07,.68-.16,1.35-.42,1.9-.91,.14-.12,.28-.3,.24-.49-.15-.11-.36-.06-.51,.05s-.28,.27-.43,.38c-.28,.21-.62,.26-.95,.31-.51,.07-1.05,.14-1.53-.07-.12-.05-.23-.12-.35-.15-.11-.03-.23-.04-.34-.08-.19-.07-.34-.22-.52-.31-.09-.04-.18-.07-.28-.1-.07-.02-.14-.04-.21,0-.26,.15,.41,.64,.52,.71,.3,.22,.63,.39,.97,.53Z"/><path class="cls-13" d="M70.01,70.25c.45-.08,.92-.26,1.22-.67,.1-.14,.21-.31,.36-.28,.14,.03,.2,.23,.16,.39s-.15,.27-.26,.37c-.41,.38-.87,.72-1.39,.84-.42,.1-.94,.06-1.29-.25-.31-.27,.15-.27,.34-.3,.29-.04,.58-.05,.86-.1Z"/><path class="cls-41" d="M69.91,71.19c.18,.06,.34,.18,.52,.26,.61,.27,1.33-.11,1.69-.75,.05-.09,.12-.2,.21-.21,.12-.01,.21,.14,.2,.27s-.07,.26-.14,.37l-.24,.4c-.11,.19-.23,.38-.38,.53-.34,.32-.81,.38-1.23,.25-.38-.12-.73-.38-1.03-.68-.13-.12-.28-.24-.12-.4,.12-.12,.39-.1,.53-.05Z"/><g id="Fregner"><path class="cls-20" d="M53.85,74.65c-.07,.19-.06,.43,.04,.61s.27,.3,.45,.3c.02,0,.05,0,.07-.02,.02-.02,.03-.05,.03-.09l.03-.22c.02-.12,.03-.23,.01-.35-.03-.16-.13-.3-.26-.36s-.28-.04-.39,.06"/><path class="cls-20" d="M53.53,76.28c-.11,.13-.17,.31-.16,.5,.1,.03,.2,.05,.3,.05,.03,0,.06,0,.08-.02,.05-.04,.05-.13,.03-.2-.05-.16-.17-.29-.31-.34"/><path class="cls-20" d="M54.92,73.71c-.09,.17-.08,.4,.03,.55,.03,.04,.06,.08,.11,.08,.07,0,.13-.06,.14-.13s0-.16-.02-.23c-.04-.16-.14-.35-.28-.33"/><path class="cls-21" d="M54.72,77.28c-.19,.27-.23,.69-.08,1,.07,.15,.2,.29,.35,.28,.14,0,.26-.16,.29-.32s0-.34-.05-.5c-.04-.14-.11-.28-.2-.38s-.24-.15-.36-.11"/><path class="cls-20" d="M54.05,76.48c-.05,.11-.02,.25,.06,.34s.2,.09,.29,.02c.04-.11,.01-.24-.07-.31s-.2-.07-.27,0"/><path class="cls-18" d="M72.79,73.29c.03,.06-.03,.14-.04,.21,0,.1,.1,.14,.18,.16l.48,.1s.09,.02,.13-.01c.02-.02,.04-.05,.04-.08,.04-.18-.13-.34-.29-.35s-.32,.04-.47,0"/><path class="cls-18" d="M73.9,74.15c-.11,0-.22,0-.32,.04s-.19,.16-.18,.29c0,.18,.18,.28,.33,.28,.13,0,.28-.08,.31-.24,.02-.17-.11-.31-.24-.4"/><path class="cls-18" d="M73.27,71.9c-.11,.12-.18,.29-.18,.47,0,.06,0,.12,.03,.17,.07,.15,.29,.14,.37,0s.05-.35-.05-.48c-.06-.08-.14-.13-.22-.18"/><path class="cls-37" d="M64.85,73.09l.51,.34s.09,.06,.13,.02c.03-.02,.04-.06,.04-.09,.03-.25-.14-.47-.15-.72-.01-.27-.23-.59-.5-.36-.13,.11-.16,.72-.03,.81Z"/><path class="cls-37" d="M64.18,74.8s.06,.05,.1,.06l.71,.17c.09,.02,.19,.03,.24-.05,.02-.04,.02-.09,.03-.13,0-.07,0-.15,0-.22,0-.05,0-.1-.03-.14-.02-.04-.05-.07-.09-.09-.19-.11-.41-.1-.6-.2-.13-.07-.38-.24-.44,.03,0,.04,.07,.54,.08,.57Z"/><path class="cls-37" d="M69.8,76.66c.09,.15,.07,.39,.2,.49,.06,.05,.15,.05,.21,0s.09-.15,.07-.23c-.02-.09-.08-.16-.15-.22-.06-.06-.12-.12-.19-.14-.08-.02-.18,.04-.16,.13"/><path class="cls-37" d="M70.97,78.38c.02,.1,.03,.2,.08,.28s.13,.15,.21,.13c.05-.01,.09-.04,.12-.08,.07-.06,.15-.13,.16-.23,0-.06,0-.13-.03-.19-.03-.1-.07-.2-.12-.3-.07-.16-.26-.46-.45-.3-.15,.13-.02,.52,.01,.69Z"/><path class="cls-38" d="M68.93,86.34c0,.08-.06,.15-.07,.23,0,.08,.06,.15,.12,.19,.12,.07,.27,.09,.41,.04,.02,0,.05-.02,.06-.05,.02-.03,0-.07,0-.1-.03-.13-.07-.26-.11-.39-.02-.05-.04-.1-.07-.13-.03-.03-.06-.04-.09-.05l-.23-.1v.38"/><path class="cls-38" d="M68.95,88.79c.09,.05,.2,.09,.3,.06,.14-.04,.23-.17,.32-.3,.07-.11,.15-.25,.1-.38-.02-.07-.08-.12-.13-.16-.2-.17-.83-.71-1.04-.31-.19,.35,.2,.94,.45,1.09Z"/><path class="cls-38" d="M66.82,85.47c-.03,.13,.01,.29,.11,.36s.26,0,.29-.13c.03-.11-.03-.23-.11-.3-.05-.05-.13-.09-.19-.07s-.11,.12-.07,.19"/><path class="cls-38" d="M66.77,86.62v.4s0,.08,.01,.11c.03,.07,.11,.09,.17,.09,.14-.02,.26-.15,.29-.31,0-.03,0-.07,0-.1-.01-.03-.04-.06-.07-.08-.14-.11-.35-.17-.47-.04"/></g><path class="cls-29" d="M40.11,85.21c-.1-.4-.23-.79-.34-1.19-.21-.74-.37-1.5-.54-2.25l-.46-2.09c-.05-.22-.1-.47,0-.67,.08-.18,.26-.26,.42-.33,.9-.4,1.81-.76,2.74-1.06,.11-.04,.23-.07,.35-.05,.34,.08,.42,.6,.43,1.01l.75-.33c.07-.03,.15-.06,.21-.02,.08,.05,.09,.17,.09,.28v.83c.12,.21,.39,0,.48-.22s.24-.51,.43-.42c.06,.03,.11,.1,.14,.16,.73,1.32-.31,3.24,.36,4.59,.11,.22,.3,.43,.51,.36,.13-.04,.22-.17,.29-.31,.41-.86,.11-2,.5-2.87,.03-.08,.08-.16,.14-.2,.14-.09,.3,.03,.43,.13,.2,.17,.4,.34,.57,.55,.21,.26,.36,.57,.55,.84,.21,.28,.46,.51,.7,.75,1.09,1.08,1.97,2.43,2.59,3.94-.9-.45-1.88-.9-2.84-.67-.81,.2-1.48,.86-1.98,1.63s-.87,1.64-1.3,2.47c-.13,.25-.27,.5-.46,.7-.27,.29-.63,.44-.97,.58l-1.66,.7c-.33,.14-1.32,.71-1.58,.32-.12-.18,0-.91,0-1.14,0-.41,0-.82,0-1.23-.02-1.62-.14-3.25-.54-4.81Z"/><g id="Hår"><path class="cls-16" d="M39.99,83.87c-.22-.85-.48-1.68-.68-2.54-.12-.51-.22-1.02-.29-1.54-.04-.32-.06-.68,.11-.93,.13-.19,.35-.26,.55-.33l2.9-.92c.25,.18-.05,.8,.22,.92,.06,.02,.12,.01,.17,0l.8-.18c-.05,.51,0,1.04,.17,1.52,.17-.21,.2-.53,.3-.79s.37-.5,.58-.35l.03,4.12c0,.6,.02,1.26,.36,1.72,.59-.3,.87-1.1,.98-1.84s.14-1.53,.44-2.19c.72,.61,1.4,1.3,2.01,2.07,.61,.76,1.16,1.59,1.7,2.42,.45,.68,.9,1.36,1.16,2.16-.63-.59-1.33-1.22-2.14-1.25-.39-.01-.77,.11-1.14,.27-.52,.22-1.03,.5-1.44,.94-.89,.97-1.14,2.56-2.04,3.52-.48,.52-1.1,.79-1.72,1.01s-1.33,.67-1.95,.82c-.46,.11-.35-.21-.32-.71s.04-1.02,.04-1.54c0-1.01-.07-2.01-.19-3.01-.14-1.14-.35-2.27-.63-3.37Z"/><path class="cls-11" d="M36.07,92.35c-.1-.74-.2-1.49-.32-2.23-.19-1.14-.39-2.3-.33-3.46,0-.18,.02-.37-.01-.55-.04-.21-.15-.39-.24-.58-.57-1.28-.05-2.84-.12-4.29,0-.08-.01-.18-.07-.23-.04-.04-.1-.05-.16-.06-.55-.06-.88-.3-1.01,.42-.1,.56-.15,1.15-.17,1.72-.01,.51,.01,1.02-.1,1.51-.22,.98-.93,1.73-1.17,2.7-.27,1.11,.11,2.23,.41,3.36,1.05,.64,2.17,1.19,3.29,1.68Z"/><path class="cls-15" d="M68.02,60.3c.17-.14,.35-.28,.56-.34,.18-.05,.37-.04,.56-.03,1.25,.09,2.49,.26,3.73,.51,.39,.08,.78,.17,1.11,.42,.9,.71,.86,2.27,1.37,3.4,.57,1.26,1.79,1.9,2.56,3.01,.37,.53,.62,1.16,.98,1.7,.75,1.13,1.91,1.79,2.78,2.79,.82,.94,1.37,2.16,1.84,3.39,1.01,2.6,1.75,5.35,2.2,8.16,.11,.7,.19,1.48-.15,2.06-.19,.33-.5,.54-.77,.78-.49,.43-.9,.98-1.21,1.6-.46,.94-.87,2.2-1.78,2.29-.67,.06-1.24-.62-1.48-1.36s-.26-1.55-.43-2.32c-.24-1.13-.81-2.14-1.01-3.28-.19-1.07-.05-2.19-.2-3.27-.15-1.12-.61-2.18-.64-3.31,0-.36,.11-.82,.42-.82,.12,.45,.44,.83,.83,.96-.18-.36-.32-.75-.41-1.16-.13-.57-.16-1.16-.27-1.73-.29-1.55-1.13-2.94-2.28-3.77-.55-.4-1.24-.76-1.41-1.49-.06-.24-.05-.51-.14-.74-.28-.72-1.15-.6-1.82-.58-.16,0-.32,0-.47-.08-.4-.21-.49-.82-.65-1.31-.18-.57-.54-1.07-.98-1.38-.37-.26-.81-.41-1.12-.77-.28-.33-.44-.82-.78-1.06-.28-.2-.63-.19-.96-.18-.87,.04-1.84,.22-2.7,.09,.27-.43,.89-.76,1.28-1.06l1.43-1.11Z"/><g><path class="cls-14" d="M89.68,83.97c-.26-.28-.64-.36-.94-.59-.85-.65-.74-2.17-.35-3.27,.39-1.1,.97-2.25,.72-3.41-.17-.79-.75-1.44-1.44-1.59-.37-.08-.75-.03-1.13-.04-1.23-.04-2.43-.83-3.1-2.06,.45-.36,.87-.77,1.27-1.21,.76-.83,1.46-2.1,1.01-3.2-.1-.25-.25-.47-.35-.72-.3-.84,.14-1.93-.33-2.66-.25-.4-.71-.55-1.13-.52-.42,.03-.82,.21-1.22,.36-1.1,.42-2.3,.61-3.4,.22-1.1-.39-2.08-1.47-2.24-2.82-.11-.99,.17-2.16-.42-2.87-.37-.45-.95-.52-1.48-.56-.41-.03-.82-.06-1.23-.09-.18-.01-.38-.03-.53-.14-.57-.43-.11-1.67-.62-2.19-.41-.43-1.05-.01-1.47,.4-.86,.83-1.72,1.67-2.58,2.5,.56,.5,1.07,.9,1.63,1.4,.11,.1,.22,.19,.34,.26,.32,.18,.69,.13,1.05,.1,.55-.04,1.1,0,1.65,.1,.17,.03,.35,.08,.48,.2,.22,.2,.29,.54,.33,.86,.1,.74,.14,1.44,.09,2.19-.29,.4,.01,1.06,.43,1.27,.41,.21,.88,.16,1.32,.27,.74,.19,1.37,.88,1.58,1.73,.21,.85,.05,1.85,.5,2.54,.41,.62,1.14,.76,1.78,.97,.64,.22,1.35,.74,1.33,1.52,0,.35-.16,.66-.29,.97-.34,.82-.54,1.73-.58,2.65,.53,.08,1.06,.16,1.59,.23,.18,.03,.37,.06,.52,.18,.18,.16,.26,.43,.32,.69,.2,.86,.29,1.75,.28,2.65,0,.55-.04,1.14,.22,1.59,.38,.66,1.28,.81,1.48,1.57,.15,.6-.25,1.21-.71,1.51-.46,.31-1,.44-1.44,.78-1.04,.81-1.21,2.67-.56,3.92-.37,.11-.77-.17-.95-.58-.18-.4-.18-.88-.12-1.33,.07-.54,.23-1.07,.46-1.54,.25-.52,.61-1.01,.67-1.61,.08-.71-.27-1.39-.71-1.88-.44-.49-.97-.85-1.41-1.33-1.35-1.46-1.73-3.76-2.03-5.89-.21,0-.3,.32-.29,.56,.02,1.22,.86,2.34,.68,3.54-.16,1.03-1.04,1.85-.96,2.89,.11,1.43,1.92,2.11,1.88,3.54-.01,.41-.18,.79-.3,1.18-.16,.52-.23,1.08-.2,1.64,0,.1,.02,.21,.06,.3,.07,.13,.2,.19,.33,.24,1.03,.41,2.11,.59,3.15,.98s2.06,1.02,2.66,2.09c.05,.09,.1,.19,.15,.29,.09,.05,.19,.09,.28,.13,.36,.21,.64,.49,.89,.81,.15,.07,.31,.12,.46,.19,.11,.01,.21,.04,.32,.05,.21-.24,.34-.59,.33-.94-.03-.57-.37-1.08-.78-1.38-.33-.24-.73-.38-.97-.73-.44-.63-.28-1.65,0-2.4,1-.41,1.97-.93,2.9-1.54,.48-.32,.96-.68,1.25-1.23,.28-.56,.3-1.35-.11-1.79Z"/><g><path class="cls-4" d="M76.05,59.46c.24,.09,.48,.2,.64,.42,.16,.21,.23,.49,.25,.77,.13,1.3-.55,2.67-.11,3.87,.37,1.01,1.37,1.45,2.29,1.59,1.06,.17,2.15,.08,3.19-.25,.36-.11,.72-.26,1.09-.21,.72,.08,1.28,1,1.13,1.83-.57-.53-1.37-.54-2.07-.36s-1.39,.5-2.11,.55c-1,.08-1.98-.38-2.91-.82-.36-.17-.74-.36-.98-.72-.18-.27-.26-.6-.32-.93-.18-.96-.22-1.95-.13-2.92,.08-.76,.13-1.76-.46-2.07-.28-.14-.61-.05-.92-.11-.52-.09-.64-.57-.24-.86,.35-.25,1.28,.09,1.65,.23Z"/><path class="cls-3" d="M82.18,77.49c-.63-.21-1.32-.4-1.73-1-.45-.64-.03-1.9,.12-2.32,.04-.12,.12-.31,.23-.64,.1-.3,.14-.48,.27-.93,.19-.64,.23-.71,.3-.73,.19-.04,.43,.51,.48,.63l-.9,3.09h0s.71,1.21,1.76,1.64c.22,.09,.61,.22,.89,.53,.19,.21,.29,.47,.28,.76-.48-.03-1.11-.85-1.68-1.04Z"/><path class="cls-3" d="M84.42,89.63c-.04-.31-.03-.62-.02-.94,0-.18,.02-.37,.1-.53,.07-.14,.2-.24,.31-.33l.66-.51c.13-.1,.28-.21,.44-.2s.31,.22,.24,.39c-.04,.1-.14,.14-.22,.18-.66,.37-.89,1.4-.68,2.22,.18,.68,.58,1.23,1.01,1.7,.21,.23,.82,.76,.26,.81-.88,.07-1.99-1.97-2.11-2.79Z"/><path class="cls-3" d="M87.09,81.73c0-.87,.26-1.72,.63-2.47,.23-.47,.51-.95,.53-1.49,.02-.57-.27-1.13-.7-1.37-.16-.09-.38-.22-.33-.42,.03-.12,.16-.17,.26-.17,.38,0,.68,.4,.84,.8,.19,.48,.27,1.03,.21,1.56-.09,.91-.54,1.73-.67,2.63-.17,1.19,.28,2.47,1.12,3.16,.19,.15,.39,.29,.48,.54-.5,.25-1.31-.33-1.65-.73-.45-.54-.71-1.3-.72-2.04Z"/><path class="cls-28" d="M77.55,87.83c-.4-.61-.99-1.09-1.17-1.84,.04-.2,.27-.26,.42-.16s.23,.3,.29,.49,.11,.4,.24,.54c.22,.25,.6,.22,.82,.47,.12,.14,.17,.34,.22,.54,.08,.35,.62,1.76-.09,1.37-.37-.2-.49-1.04-.74-1.41Z"/></g></g><path class="cls-24" d="M33.9,91.31c.36,.19,.72,.37,1.08,.54-.07-1.09-.47-2.2-.91-3.19-.16-.36-.32-.73-.4-1.13-.17-.85,.07-1.73,.31-2.55-.33-.06-.66,.22-.81,.57-.16,.35-.18,.76-.18,1.16,0,1.37,.24,2.74,.7,4.01,.07,.2,.14,.39,.22,.59Z"/></g><g><path class="cls-19" d="M51.77,74.93c.03,.32-.1,.64-.15,.96-.13,.9,.45,1.72,.64,2.6,.19,.9-.03,1.87,.13,2.79,.03,.2,.09,.41,.23,.53,.14,.12,.38,.1,.45-.09-.19-.61-.12-1.32,.18-1.86,.3,.33,.19,.93,.36,1.37,.08,.21,.22,.37,.32,.57,.36,.71,.19,1.75,.74,2.26,.23,.22,.54,.27,.81,.43,.64,.38,.93,1.32,.88,2.17-.05,.85-.36,1.64-.64,2.42-.27,.77-.52,1.58-.55,2.41,0,.27,.02,.55,.07,.82,.22,.41,.41,.84,.6,1.29,.01,.03,.02,.06,.04,.09,.02,.02,.03,.05,.05,.07,.19,.19,.42,.34,.52,.6,.1,.26,.04,.56,.06,.85,.03,.36,.65,1.01,.88,.51,.08-.18,.04-.39-.01-.58-.19-.74-.46-1.44-.8-2.1-.23-.44-.5-.89-.52-1.41-.03-.51,.18-.98,.37-1.44,.29-.71,.56-1.44,.78-2.19,.28-.91,.51-1.87,.45-2.84-.05-.97-.42-1.96-1.12-2.47-.33-.24-.7-.37-1.05-.56-.35-.2-.68-.49-.8-.92-.09-.31-.05-.65-.08-.98-.15-1.54-1.72-2.4-2.06-3.9-.1-.43-.08-.88-.03-1.32,.09-.69,.28-1.36,.57-1.97,.25-.53,.58-1.09,.48-1.68-.97,.41-1.92,.89-2.83,1.45-.11,.41,.15,.83,.42,1.12,.27,.29,.59,.59,.63,1.02Z"/><path class="cls-23" d="M57.39,95.15c-.04-.58-.35-1.07-.68-1.49-.15-.19-.31-.38-.41-.62-.1-.27-.11-.57-.1-.87,.03-.67,.14-1.35,.36-1.96,.14-.38,.32-.74,.44-1.13,.1-.32,.16-.65,.23-.99l.41-2.2c.11-.59,.22-1.19,.11-1.78s-.51-1.13-1.01-1.13c-.04,.12,.01,.26,.06,.38,.43,1.05,.52,2.28,.33,3.43s-.64,2.22-1.23,3.15c-.2,.32-.42,.63-.57,.99s-.21,.8-.09,1.17c.09,.27,.27,.48,.44,.7,.45,.57,.82,1.22,1.1,1.92,.05,.12,.18,.82,.26,.87,.24,.16,.35-.2,.33-.45Z"/><path class="cls-23" d="M52.77,79.5c.08,.08,.09,.21,.1,.33,.01,.45-.03,.89,.04,1.33,.03,.17,.22,.81-.15,.74-.27-.05-.13-.83-.12-1.05,0-.15,.19-1.3,.13-1.36Z"/><path class="cls-25" d="M53.85,80.42c.02-.32,.12-.65,.04-.96-.06-.22-.19-.4-.33-.56l-.49-.6c-.19-.23-.39-.47-.53-.75-.43-.8-.43-1.84-.31-2.79s.34-1.89,.3-2.85c0-.18-.01-.38,.09-.5,.16-.2,.46,.04,.5,.32s-.08,.55-.17,.81c-.24,.66-.33,1.39-.42,2.11-.06,.45-.11,.91-.04,1.36,.09,.59,.38,1.1,.68,1.58,.24,.4,.5,.8,.81,1.11,.11,.11,.24,.21,.33,.35,.26,.35,.31,.86,.29,1.33-.01,.29-.04,.6,.07,.85,.07,.17,.48,.6,.37,.8s-.49-.09-.59-.18c-.37-.31-.63-.87-.59-1.44Z"/></g><path class="cls-17" d="M74.75,74.67c.1,1.36-.1,2.78,.35,4.04,.07,.21,.17,.42,.33,.55,.13,.1,.29,.14,.45,.17,.6,.11,1.2,.13,1.81,.07,.67-.07,1.45-.21,1.94,.33,.42,.46,.45,1.23,.67,1.86,.3,.87,1.03,1.51,1.81,1.6,.01-.26-.16-.48-.35-.6s-.4-.2-.57-.36c-.68-.63-.24-2.02-.74-2.85-.35-.58-1.04-.69-1.64-.71-.82-.03-1.64,0-2.45,.07-.6-.9-.89-2.1-.76-3.24,.07-.61,.24-1.2,.32-1.81s.03-1.28-.3-1.77c-.26-.38-1.18-.82-1.34-.14-.07,.31,.23,1.02,.29,1.34,.09,.48,.17,.96,.2,1.45Z"/><g id="Hat"><path class="cls-1" d="M30.96,71.84c1.69-1.85,3.09-4.05,4.77-5.91,1.57-1.76,3.36-3.2,4.92-4.98,1.28-1.46,2.38-3.13,3.74-4.48,2.58-2.58,5.87-3.85,9.09-4.97,.96-.33,1.92-.65,2.92-.69,1.94-.07,3.83,.96,5.77,.91,.85-.02,1.68-.25,2.53-.21,1.3,.06,2.55,.75,3.85,.79,1.75,.05,3.36-1.07,5.04-1.7,1.66-.63,3.41-.79,5.15-.95l4.53-.41c1.2-.11,2.71-.01,3.21,1.32-4.67-.68-9.54,1-13.21,4.55-1.19,1.15-2.25,2.49-3.4,3.71-1.79,1.91-3.77,3.54-5.79,5.09-4.57,3.53-9.34,6.69-14.25,9.47-1.1,.62-2.2,1.22-3.3,1.82l-3.39,1.84c-2.9,1.57-5.85,3.17-8.99,3.67,1.31-1.43,2.07-3.56,2.03-5.69-2,.93-2.88,3.98-4.86,4.97-.95,.47-2.01,.4-3.03,.26-1.39-.2-2.77-.52-4.12-.95-.81-.26-2.99-.66-3.34-1.63,3.81-1.14,7.2-2.56,10.17-5.82Z"/><path class="cls-36" d="M38.94,42.87c-.1-2.67,.24-5.43-.58-7.97-.23-.71-.56-1.44-.48-2.19,.09-.83,.66-1.51,1.13-2.18,.51-.72,.93-1.51,1.26-2.33,.19-.48,.36-.98,.31-1.5-.11-1.11-1.13-1.83-1.94-2.57s-1.52-1.98-.91-2.9c.25-.37,.69-.6,.87-1.02,.13-.28,.12-.61,.11-.92l-.09-3.1c-.02-.63-.03-1.28,.15-1.89,.26-.85,.9-1.52,1.51-2.15,.41-.43,.96-.89,1.52-.7,.22,.08,.4,.25,.57,.42,.83,.83,1.69,1.68,2.17,2.76s.52,2.46-.21,3.38c-.29,.36-.78,.64-1.19,.44-.24-.12-.38-.36-.51-.6l-.76-1.36c-.16-.28-.32-.57-.31-.9s.23-.67,.54-.67c.19,1.04,.76,2.01,1.58,2.66,.56-1.08,.19-2.58-.82-3.25-.44-.3-1.07-.42-1.48-.07-.38,.32-.42,.88-.44,1.38l-.2,6.08c0,.17,0,.35,.07,.51,.12,.22,.37,.31,.6,.39,1.2,.42,2.35,.99,3.41,1.7,.53,.35,1.04,.74,1.39,1.28,.87,1.34,.45,3.15-.27,4.58-.32,.64-.72,1.3-.68,2.03,.03,.62,.37,1.17,.69,1.68l5.78,9.19c.95,1.51,1.91,3.03,3.01,4.43,1.13,1.42,2.41,2.72,3.81,3.85-4.14,.33-8.24,1.25-12.13,2.72-2,.75-4.14,1.87-4.82,3.94,.37-1.11-.11-3.13-.27-4.27-.15-1.01-.37-1.92-.72-2.87-.97-2.58-1.59-5.26-1.69-8.03Z"/><path class="cls-34" d="M42.91,73.8c.39-.89,.65-1.86,.91-2.82,1.17-4.33,2.35-8.8,2.13-13.37-.04-.83-.12-1.66-.05-2.48s.35-1.66,.88-2.14c.27-.25,.59-.39,.9-.53l.94-.42c.16-.07,.34-.14,.5-.06,.18,.1,.26,.36,.31,.59,.45,1.86,.59,3.82,.73,5.76,.07,1,.14,2.01,.03,3.01-.1,.81-.32,1.59-.41,2.4-.08,.66-.08,1.33-.12,2-.07,.95-.24,1.89-.41,2.82l-.46,2.51c-.15,.84-.32,1.72-.79,2.35-.29,.4-.68,.67-1.07,.91-1.34,.85-3.48,2.29-5,2.13,.03-.97,.62-1.85,.98-2.67Z"/><path class="cls-27" d="M18.81,79.45c.5,.74,1.2,1.25,1.89,1.73,.82,.57,1.66,1.12,2.5,1.66,2.5,1.58,5.08,2.99,7.77,4.07,.45,.18,.94,.35,1.38,.16,.71-.3,.94-1.33,1.06-2.21l.64-4.43,1.31,.36c.62-2.17,1.02-4.44,1.17-6.72,.02-.34-.03-.79-.31-.86-.11-.02-.23,.03-.33,.08-1.93,1.02-3.2,3.2-4.26,5.36-.19,.39-.42,.82-.79,.95-.25,.08-.51,.02-.76-.05-2.64-.72-5.27-1.45-7.91-2.16-1.2-.32-5.21-.73-3.35,2.05Z"/><path class="cls-26" d="M77.41,51.76c.56-.36,1.13-.71,1.73-.96,.73-.3,1.5-.44,2.26-.59l1.98-.38c.9-.17,1.86-.33,2.67,.14,.39,.22,.71,.57,1,.94,1.39,1.76,2.2,4.14,2.22,6.55,.01,2.18-.6,4.29-1.27,6.32-.78,2.36-1.67,4.67-2.55,6.98-.46,1.22-1.19,2.63-2.32,2.58-.25-1.01,.58-1.88,1.16-2.68,.92-1.26,1.33-3.02,1.09-4.66-.04-.26-.09-.52-.22-.74-.34-.56-1.07-.55-1.6-.26s-.97,.77-1.51,1.04c-.53,.27-1.12,.31-1.7,.34-1.1,.06-2.38-.02-3.01-1.08-.59-1-.31-2.45-.85-3.49-.86-1.65-3.17-1.31-4.2-2.82-2.12-3.1,3.53-6.22,5.1-7.24Z"/><path class="cls-12" d="M54.93,51.56c1.01,.19,1.96,.69,2.95,.99,2.56,.79,5.24,.29,7.86,.62,.68,.09,1.37,.23,2.03,.01,.47-.15,.89-.48,1.33-.73,.72-.42,1.51-.65,2.29-.84,1.67-.42,3.37-.7,5.07-.85,.28-.02,.67,.07,.68,.43-2.56,.9-4.96,2.56-6.95,4.82-.47,.53-1,1.12-1.61,1.03-.31-.05-.58-.26-.87-.41-.37-.18-.76-.24-1.15-.29-.71-.1-1.43-.2-2.14-.2-.64,0-1.28,.09-1.92,.07-1.12-.04-2.21-.41-3.29-.77l-5.38-1.82c-.61-.21-2.56-.54-1.9-1.59,.53-.84,2.32-.61,3.03-.48Z"/><path class="cls-6" d="M41.3,53.94c-.03-.4-.06-.81,0-1.2,.11-.63,.46-1.13,.79-1.62,.75-1.08,1.5-2.17,2.38-3.08,.53-.55,1.1-1.03,1.68-1.46,1.33-.99,2.78-1.74,4.31-2.08,1.49-.33,3.01-.25,4.52-.17,.11,0,.22,.01,.31,.09,.06,.05,.1,.13,.14,.21,1.05,2.04,1.86,4.28,2.39,6.62-1.01,.41-2.1,.21-3.16,.28-.45,.03-1.97,.38-3.91,1.18-1.88,.78-3.22,1.66-4.32,2.39-1.48,.98-2.22,1.47-2.83,2.16-.83,.92-1.39,1.89-1.7,1.7-.17-.11-.1-.46-.15-1.37-.08-1.44-.3-1.7-.46-3.65Z"/><path class="cls-33" d="M42.1,55.67c.17-.64,.54-1.19,.92-1.69,.8-1.06,1.69-2.01,2.66-2.84,.14-.12,.42-.17,.42,.04-.14,.17-.35,.44-.6,.77-.47,.62-.59,.8-.89,1.18-.8,1.02-.81,.81-1.04,1.23-.23,.43-.33,1-.54,2.15-.12,.7-.18,1.05-.18,1.38,.02,.89,.32,1.58,.55,1.99-1.09,.32-1.52-3.41-1.3-4.2Z"/><path class="cls-33" d="M55.09,50.73c.24,.01,.51,.01,.67-.2,.24-.31,.04-.8-.12-1.17-.44-.98-.63-2.13-.4-3.2,.21,.09,.31,.37,.39,.62l.91,2.91c.12,.38,.24,.76,.24,1.17s-.13,.83-.41,1.05c-.29,.22-.67,.18-.99,.06s-.63-.33-.96-.42c-.44-.13-.9-.06-1.36-.09s-.94-.16-1.23-.58c-.03-.04-.05-.08-.06-.13-.1-.49,1.03-.15,1.22-.14,.7,.04,1.39,.08,2.09,.12Z"/><path class="cls-5" d="M50.36,52.78c-.77,.22-1.69,.4-2.26-.25-.2-.22-.32-.52-.43-.81-.65-1.68-1.03-3.51-1.12-5.35-.05-1.05,.09-2.3,.87-2.8,.28-.18,.61-.23,.93-.27,1.25-.15,2.52-.14,3.77,0,.25,.03,.5,.07,.71,.22s.36,.46,.3,.74c-.12,.49-.7,.5-1.13,.44-.63-.08-1.26-.08-1.88,.02-.4,.06-.86,.22-.98,.67-.07,.26,0,.54,.05,.8l.4,1.66c.16,.68,.33,1.36,.64,1.96s.78,1.12,1.36,1.27c.33,.09,.67,.06,1,.15,.18,.05,.53,.2,.59,.43,.11,.42-.25,.36-.57,.46-.75,.22-1.51,.43-2.26,.64Z"/><path class="cls-7" d="M50.88,48.18c-.36-.31-.84-.34-1.29-.33-.43,.01-.88,.06-1.22,.38s-.47,.98-.15,1.32c.18,.2,.45,.24,.7,.26l1.09,.11c.36,.04,.77,.06,1.03-.24,.44-.5,.28-1.14-.16-1.51Z"/></g><path id="Skygge" class="cls-43" d="M39.33,80.93c1.33-.31,1.42-.56,4.07-1.47,.84-.29,1.7-.52,2.47-1,.55-.34,1.03-.81,1.6-1.11,.64-.35,1.35-.47,2.03-.7,2.19-.76,3.92-2.7,5.9-4.04,1.03-.7,2.13-1.24,3.19-1.89,1.87-1.16,3.57-2.67,5.26-4.17,.75-.67,1.51-1.34,2.23-2.06,3.75-3.74,5.16-3.87,6.18-5.95,.34-.7,.78-1.82,.93-3.47-.71,.12-1.71,.41-2.66,1.19-1.12,.91-1.46,1.9-2.21,3.12-.92,1.48-2.05,2.42-4.31,4.29-.77,.63-2.57,2.11-5.04,3.5-.9,.51-2.74,1.51-4.39,2.64-.4,.28-.8,.57-1.19,.87-1.07,.82-1.84,1.43-1.98,1.55-1.53,1.24-4.31,2.37-8.35,4.27-2.92,1.38-3.44,1.72-5.81,2.74-1.33,.57-2.45,1.01-3.25,1.32,2.4,.82,4.2,.66,5.34,.4Z"/><path class="cls-30" d="M76.46,78.13c0-.13,.01-.27-.02-.4-.04-.2-.17-.37-.3-.51-.15-.14-.31-.26-.49-.34-.22-.1-.49-.17-.6-.42-.03-.09-.04-.18-.05-.28-.04-.94,.47-1.85,1.18-2.28,.15-.09,.32-.16,.49-.13s.33,.19,.33,.39c-.56,.19-1.1,.52-1.5,1.02-.17,.2-.31,.45-.36,.72s.03,.6,.22,.76c.38,.31,.97-.1,1.34,.23,.23,.2,.26,.6,.24,.94-.03,.53-.13,1.06-.3,1.55-.04,.12-.09,.21-.18,.27-.2-.27-.03-1.16,0-1.52Z"/></g></g></g></g></svg>