<?xml version="1.0" encoding="UTF-8"?><svg id="Layer_2" xmlns="http://www.w3.org/2000/svg" viewBox="0 0 115 115"><defs><style>.cls-1{fill:#fff;}.cls-2{fill:#ff3;}.cls-3{fill:#ffc9ff;}.cls-4{fill:#efe3da;}.cls-5{fill:#661f49;}.cls-6{fill:#33f;}.cls-7{fill:#d99f57;}.cls-8{fill:#58153b;}</style></defs><g id="forside_temaer"><g id="redesign_logo"><g><g><circle class="cls-1" cx="57.5" cy="57.5" r="57.5"/><circle class="cls-4" cx="57.5" cy="57.5" r="53.5"/><circle class="cls-1" cx="57.5" cy="57.5" r="49.5"/></g><g><rect class="cls-5" x="26" y="31" width="66" height="45" rx="7.43" ry="7.43"/><rect class="cls-3" x="33" y="37" width="52" height="33"/><rect class="cls-7" x="33" y="37" width="52" height="3"/><path class="cls-8" d="M66,76h-15c-.67,2.67-1.33,5.33-2,8h19c-.67-2.67-1.33-5.33-2-8Z"/><rect class="cls-5" x="46" y="84" width="27" height="3"/><ellipse class="cls-6" cx="59" cy="53.5" rx="9" ry="8.5"/><path class="cls-2" d="M67.97,54.11c-.02,.12-.07,.23-.1,.34-.01,.25-.05,.5-.12,.74,1.54,1.09,2.4,2.05,2.23,2.66-.39,1.39-5.9,.46-12.29-2.07s-11.26-5.7-10.87-7.09c.23-.8,2.16-.83,4.98-.22,.02-.03,.04-.05,.07-.07,.08-.13,.18-.24,.3-.34,.04-.04,.06-.08,.1-.12,.08-.13,.18-.25,.31-.35,.11-.15,.25-.29,.42-.38,.08-.1,.16-.19,.28-.26-5.67-.43-7.3,.25-7.57,1.07-.66,1.98,6.09,6.14,11.85,8.42,7.07,2.8,13.23,3.56,13.75,1.71,.27-.96-1.03-2.44-3.33-4.03Z"/></g></g></g></g></svg>