<?xml version="1.0" encoding="UTF-8"?><svg id="Layer_2" xmlns="http://www.w3.org/2000/svg" viewBox="0 0 657.77 276.5"><defs><style>.cls-1{fill:#f3f3f3;}.cls-2{fill:#f8a07b;}.cls-3{fill:#f2eabd;}.cls-4{fill:#fc554a;}.cls-5{fill:#f99f7d;}.cls-6{fill:#ed8e11;}.cls-7{fill:#e6eaf2;}.cls-8{fill:#e58061;}.cls-9{fill:#f6911b;}.cls-10{fill:#ffcc58;}.cls-11{fill:#e7871a;}.cls-12{fill:#fbaf36;}.cls-13{fill:#ebce4d;}.cls-14{fill:#fdad5a;}.cls-15{fill:#fcde54;}.cls-16{fill:#fdf5c4;}.cls-17,.cls-18{fill:#988dcb;}.cls-19{fill:#7f333d;}.cls-20{fill:#7c87c3;}.cls-21{fill:#c1c1c3;}.cls-22{fill:#333;}.cls-23{fill:#b44a5a;}.cls-24{fill:#ac6614;}.cls-25{fill:#d0c9fa;}.cls-26,.cls-27{fill:#c3b8ff;}.cls-28{fill:#2d2157;}.cls-29{fill:#7a4848;}.cls-30{fill:#bf956d;}.cls-30,.cls-31{stroke:#bf956d;stroke-miterlimit:10;}.cls-31{fill:#604b37;}.cls-32{fill:#ffc94a;opacity:.62;}.cls-18{opacity:.54;}.cls-27{opacity:.64;}</style></defs><g id="forside_temaer"><g><g><g><path class="cls-30" d="M303.76,149.85c1.87-9.96,3.89-24.04,4.19-41.03,.38-21.34-2.3-27.82,0-45.22,1.94-14.66,3.64-27.55,13.4-39.78,12.72-15.95,30.6-20.09,36.43-21.35,6.54-1.42,23.6-5.11,40.16,3.84,12.71,6.87,19.32,18.05,22.23,22.95,5.13,8.67,3.81,10.96,11.3,25.54,6.06,11.8,7.62,11.65,10.75,19.5,3.87,9.7,3.34,14.55,5.58,26.56,3.8,20.34,7.54,18.29,9.63,32.66,3.3,22.75-3.34,46.68-5.99,46.59-.16,0-.27-.09-.29-.11-1.98-1.48-44.22-10.29-147.38-30.15Z"/><path class="cls-31" d="M401.11,153.82c-8.49,8.46-23.15,8.26-32.66,5.02-14.34-4.88-20.43-17.83-32.66-15.91-3.25,.51-5.03,1.77-6.91,.63-4.49-2.72,.16-13.18,.84-28.05,1.08-23.61-8.9-34.77-1.26-44.38,.63-.8,4.36-5.49,9-5.23,3.79,.21,6.34,3.63,7.54,5.02,10.11,11.86,39.57,16.19,51.92,5.44,4.85-4.22,6.09-9.93,7.75-9.42,.47,.14,1.91,1.08,0,19.26-1.84,17.55-3.54,20.05-2.09,27.21,1.59,7.88,4.17,7.46,5.31,14.66,.22,1.38,2.41,16.58-6.78,25.74Z"/><path class="cls-7" d="M397.55,11.68s13.82,6.28,19.68,20.1c.23,.53,1.09,3.09,.72,3.26-.52,.25-2.73-4.88-7-10.38-5.8-7.45-13.34-12.93-13.4-12.98h0Z"/><path class="cls-10" d="M303.14,149.64c2.33-2.57,5.04-3.8,10.05-5.44,15.61-5.13,28.75-6.21,29.73-6.28,22.6-1.72,43.54-.42,43.54-.42h0c6.14,.52,12.28,1.15,18.42,1.67,4.07,.35,8.06,1.69,12.14,1.67,1.32,0,3.36-.08,4.61,1.26,1.47,1.58,.97,4.24,.84,5.02-.7,4.18,1.1,3.07,2.51,21.77,1.08,14.34,1.68,21.51,.84,28.47-1.38,11.39-4.18,12.46-9.63,29.73-8.05,25.49-4.39,30.82-10.89,36.43-7.5,6.47-16.03,2.52-41.87,.42-34.02-2.77-50.81,5.47-56.1-3.35-2.64-4.39,1.18-6.66,1.67-18.84,.67-16.52-6.05-19.64-9.21-42.29-.47-3.35-.59-11.16-.84-26.8-.2-12.41-.02-18.38,4.19-23.03Z"/><path class="cls-2" d="M349.61,118.65c2.49,2.07,6.31,4.54,11.11,4.78,8.06,.41,13.58-5.71,17.36-3.11,1.05,.72,.48,1.09,2.93,6.28,1.32,2.8,2.56,4.94,5.02,9.21,2.88,4.98,3.18,5.05,3.77,6.7,1.22,3.38,1.51,6.88,1.26,9.21-.9,8.15-9.96,14.2-16.84,16.65-10.29,3.66-22.2,.8-29.22-6.6-4.09-4.31-8.56-11.78-6.28-15.91,.78-1.41,1.87-1.59,3.77-4.19,1.65-2.26,2.48-4.4,3.35-7.12,1.94-6.08,3.11-12.04,3.77-15.91Z"/><path class="cls-8" d="M350.03,119.49s6.32,4.42,15.82,4.46c5.47,.02,11.6-4.62,13.07-2.78,.29,.36,.17,.66,.84,2.51,.46,1.29,.94,2.3,1.26,2.93,0,0-11.3,11.3-30.98-7.12Z"/><ellipse class="cls-5" cx="365.31" cy="67.15" rx="39.57" ry="56.94"/><path class="cls-8" d="M348.77,34.92c1.96,3.2,5.15,7.71,10.05,12.14,2.87,2.6,5.29,4.22,7.12,5.44,10.86,7.24,18.4,8.21,25.96,13.82,2.45,1.82,2.82,2.58,6.28,5.02,2.19,1.55,3.35,2.17,4.19,3.77,1.17,2.24,1.12,5.31,0,5.86-1.04,.51-2.72-1.3-4.61-2.93-3.18-2.74-4.08-2.5-12.56-7.12-11.47-6.25-21.35-12.98-21.35-12.98h0s-18.31-14.72-15.49-22.19c.16-.43,.36-.75,.42-.84Z"/><path class="cls-29" d="M381.87,65.25c.6,.18,.79,.1,.84,0,.33-.66-3.43-5.12-8.4-6.55,0,0-2.73-.79-5.92,.14-1.52,.44-1.75,.9-1.78,1.17-.06,.53,.56,1.07,.94,1.3,1.62,1.02,3.55-.52,5.05-.98,1.79-.55,4.66-.09,9.26,4.92Z"/><path class="cls-12" d="M258.34,250.96c9.36-20.22,14.76-37.12,18-48.99,0,0,12.73-46.61,24.7-50.24,.02,0,1.36-.41,1.36-.44,0,0-.07,.01-.1,.02-2.61,.59-.84,24.7-.84,24.7,.68,9.23,1.43,22.39,1.67,38.94-2.51,13.12-5.02,26.24-7.54,39.36h0c-12.42-1.12-24.84-2.23-37.26-3.35Z"/><path class="cls-14" d="M420.37,142.1c3.95,.79,9.71,2.5,15.24,6.6,14.84,11.01,17.98,31.9,20.77,50.34,1.71,11.36,1.15,15.75,4.19,27.21,2.49,9.39,5.62,16.83,7.96,21.77-11.44-1.81-22.89-3.63-34.33-5.44l-8.79-41.45c-1.8-10-3.31-21.07-4.19-33.08-.68-9.2-.91-17.88-.84-25.96Z"/><path class="cls-2" d="M461.82,261.01c5.44-2.6,8.84-7.3,8.59-11.96-.29-5.38-5.34-8.64-6.49-9.39-9.21-5.95-22.02-1.43-26.38,0-13.72,4.52-35.41,8.64-72.01,9.21-6.99-3.07-21.21-8.04-31.82-2.09-3.88,2.17-3.43,3.64-16.33,13.82-3.14,2.47-5.87,4.52-5.42,5.62,.74,1.79,9.44-.28,10.86-.6,10.5-2.35,47.3-4.27,139.01-4.61Z"/><path class="cls-2" d="M235.31,238.82s48.52-4.19,52.31,0,7.98,15.49,7.98,15.49h-54.41l-5.88-15.49Z"/><path class="cls-30" d="M348.56,35.12c1.77,4.19,3.86,7.22,5.44,9.21,4.41,5.53,9.36,8.6,13.82,11.3,1.71,1.04,2.51,1.43,8.79,4.61,16.21,8.19,19.75,10.03,23.87,13.82,1.99,1.83,4.16,4.16,6.28,7.12,1.4-12,2.79-24,4.19-36.01-3.85-8-14.41-27.28-33.5-34.33-4.32-1.6-11.75-4.34-18-.84-5.22,2.93-7.48,9.01-8.79,12.56-1.89,5.11-2.15,9.66-2.09,12.56Z"/><path class="cls-30" d="M320.93,62.34c19.83-11.96,25.99-21.16,27.63-27.63,.27-1.06,.69-3.09,1.71-6.12,4.19-12.43,10.36-16.92,9.18-18.59-1.52-2.13-15.66,2.16-25.54,12.56-12.92,13.61-13.29,32.16-12.98,39.78Z"/><rect class="cls-20" x="33.92" y="261.85" width="623.85" height="14.65"/><g><rect class="cls-21" x="232.8" y="250.96" width="91.69" height="10.89" rx="5.44" ry="5.44"/><path class="cls-21" d="M243.41,261.69h-111.1c-1.1,.18-4.83,.64-8.04-1.71-.94-.68-1.62-1.45-2.12-2.14-5.36-28.18-10.72-56.37-16.08-84.55-.64-2.33-1.03-5.42,.6-7.51,1.53-1.95,4.21-2.23,5.54-2.31,6.31-.41,48.02-.76,105.18-.85,3.81,.14,7.62,.28,11.43,.43,.65,.02,1.66,.17,2.54,.85,1.13,.89,1.43,2.21,1.69,3.42,1.04,4.86,1.55,7.29,1.69,8.11,.22,1.3,.57,3,1.27,6.41,.68,3.33,1.29,5.99,1.69,7.69,4.51,21.42,9.03,42.84,13.54,64.27,0,4.36-3.51,7.9-7.83,7.9Z"/><path class="cls-1" d="M240.12,261.85h-109.9c-1.09,.17-4.77,.62-7.96-1.67-.93-.67-1.6-1.42-2.09-2.09-5.3-27.63-10.61-55.27-15.91-82.9-.63-2.28-1.02-5.31,.59-7.36,1.51-1.91,4.16-2.19,5.48-2.27,6.24-.4,47.5-.74,104.04-.84,3.77,.14,7.54,.28,11.3,.42,.64,.02,1.64,.17,2.51,.84,1.12,.87,1.42,2.16,1.67,3.35,1.03,4.77,1.54,7.15,1.67,7.96,.22,1.27,.56,2.94,1.26,6.28,.68,3.26,1.28,5.88,1.67,7.54,4.47,21,8.93,42.01,13.4,63.01,0,4.28-3.47,7.75-7.75,7.75Z"/></g><g><path class="cls-14" d="M478.15,228.77h50.28c.33,2.74,.55,6.66-.04,11.3-.35,2.76-.8,6.12-2.51,10.05-1.43,3.29-4.01,9.2-9.39,11.3-1.7,.66-1.82,.23-9.87,0h-16.08s-14.49-6.7-12.4-32.66Z"/><path class="cls-14" d="M544.72,235.73c.03-.17,.05-.26,.05-.26-.01-.02-.04-.05-.05-.07v-2.86h-22.19v3.35h18.85c-.11,.7-.21,1.57-.43,2.51-.55,2.34-1.61,3.91-2.93,5.86-.15,.22-1.77,2.59-3.75,4.33-4.74,4.15-11.28,4.44-13.42,4.46-3.78,.41-7.96,.99-7.96,1.67,0,.6,3.27,1.11,5.44,1.26,1.9,.13,8.3,.52,14.58-3.18,8.72-5.14,11.3-14.81,11.76-16.91h.03v-.16Z"/><path class="cls-32" d="M491.97,228.35h36.37s.03,0,.05,0c.23,.08,.04,1.26,0,1.26-.05,0-.02-1.26,0-1.26,.03,0,.65,5.19,0,11.3-.46,4.32-1.29,6.63-2.51,10.05-.59,1.65-.85,2.09-1.26,2.51-2.63,2.7-8.32,1.01-11.72,0-5.52-1.64-11.01-3.25-15.49-8.79-5.01-6.18-5.4-12.91-5.44-15.07Z"/></g><path class="cls-27" d="M117.24,83.9s-12.98-14.65-.84-21.77c.81-.48,2.93-1.71,5.92-1.66,1.19,.02,3.88,.25,6.22,2.08,1.98,1.54,2.09,2.96,4.19,6.28,.95,1.52,2.42,3.59,4.61,5.86,2.37,.76,5.24,1.83,8.37,3.35,1.88,.91,4.77,2.43,7.96,4.61,5.79,3.96,20.42,19.22,15.49,14.24h0s-8.63,6.28-15.07,10.89c-13.69,9.8-26.35,18.41-26.38,18.42h0c-6.74-11.81-8.51-20.47-8.79-26.38-.11-2.28-.42-12.98-.42-12.98h0l-1.26-2.93Z"/><path class="cls-18" d="M137.11,73.49c-6.34,3.75-12.69,7.5-19.03,11.25v1.26c6.56-3.91,13.12-7.82,19.68-11.72l-.64-.78Z"/><path class="cls-17" d="M113.35,73.49s2.22,7.06,5.57,9.16c.08,.05,.65,.31,.71,.23,.07-.12-.83-.72-1.54-1.48-.99-1.06-1.33-2.1-1.67-2.93-.5-1.21-1.38-2.91-3.05-4.97Z"/><path class="cls-17" d="M119.62,86c-.91,7.78,.04,13.78,.97,17.59,1.11,4.54,2.81,8.51,2.93,8.79,1.55,3.57,4.44,9.16,5.86,12.56,0,0,.13,.32,.14,.31,.02,0-4.74-9.87-7.26-18.74-1.4-4.93-2.75-11.8-2.64-20.52Z"/><path class="cls-25" d="M124.87,62.39s6.01,4.71,8.24,10.1c.1,.24,.39,1.07,.27,1.13-.23,.12-1.5-2.57-3.9-5.79-1-1.33-1.48-1.82-4.61-5.44h0Z"/><path class="cls-25" d="M135.33,75.53c9.21,3.73,15.29,8.17,19.26,11.72,0,0,.83,.74,10.05,9.63h0s-3.22-4.3-3.77-5.02c-3.6-4.72-8.61-7.85-12.14-10.05-3.13-1.95-7.62-4.36-13.4-6.28Z"/><rect class="cls-28" x="-10.87" y="122.34" width="140.9" height="3.35" transform="translate(-58.72 53.77) rotate(-33.64)"/><rect class="cls-28" x="-21.71" y="192.24" width="121.7" height="2.18" transform="translate(178.42 53.66) rotate(56.36)"/><rect class="cls-28" x="71.6" y="242.17" width="8.79" height="2.51"/><rect class="cls-28" x="79.14" y="230.03" width="2.51" height="25.96"/><rect class="cls-28" x="50.67" y="254.31" width="44.38" height="2.93"/><rect class="cls-26" x="50.67" y="257.24" width="59.04" height="4.61"/><g><g><path class="cls-16" d="M565.66,186.48l-3.77-17.17h42.67c.94,.63,2.21,1.69,2.97,3.35,2.35,5.16-1.67,12.98-1.67,12.98h0s-2.39,.8-2.51,.84c-2.89,.96-8.27,.14-9.21,0h-28.47Z"/><path class="cls-3" d="M606.27,170.57h-43.96c.14,.28,.28,.56,.41,.84h43.55v-.84Z"/><path class="cls-3" d="M606.27,172.66h-43.96c.14,.28,.28,.56,.41,.84h43.55v-.84Z"/><path class="cls-3" d="M606.69,174.76h-43.96c.14,.28,.28,.56,.41,.84h43.55v-.84Z"/><path class="cls-3" d="M607.11,176.43h-43.96c.14,.28,.28,.56,.41,.84h43.55v-.84Z"/><path class="cls-3" d="M607.52,178.53h-43.96c.14,.28,.28,.56,.41,.84h43.55v-.84Z"/><path class="cls-3" d="M607.94,180.62h-43.96c.14,.28,.28,.56,.41,.84h43.55v-.84Z"/><path class="cls-3" d="M608.36,182.71h-43.96c.14,.28,.28,.56,.41,.84h43.55v-.84Z"/><path class="cls-3" d="M608.78,184.81h-43.96c.14,.28,.28,.56,.41,.84h43.55v-.84Z"/><rect class="cls-11" x="558.54" y="167.64" width="86.25" height="1.67" rx=".84" ry=".84"/><rect class="cls-11" x="558.54" y="186.48" width="83.32" height="1.67" rx=".84" ry=".84"/><rect class="cls-11" x="610.04" y="167.64" width="38.1" height="20.52" rx="10.26" ry="10.26"/><rect class="cls-11" x="607.94" y="168.06" width="9.63" height="19.26"/><path class="cls-9" d="M609.08,169.32h-4.68c1.61,1.41,2.37,2.81,2.77,3.77,.49,1.21,.41,3.04,.26,6.71-.07,1.73-.21,3.48-1.21,4.6-.69,.77-1.43,1.26-1.43,1.26-.88,.57-1.49,.7-1.46,.84,.06,.22,1.58,0,4.8,0,.05,0,.09,0,.12,0,.84-1.39,1.75-3.28,2.25-5.6,1.13-5.24-.47-9.54-1.41-11.57Z"/></g><g><path class="cls-16" d="M640.98,227.39l3.77-17.17h-42.67c-.94,.63-2.21,1.69-2.97,3.35-2.35,5.16,1.67,12.98,1.67,12.98h0s2.39,.8,2.51,.84c2.89,.96,8.27,.14,9.21,0h28.47Z"/><path class="cls-3" d="M600.36,211.48h43.96c-.14,.28-.28,.56-.41,.84h-43.55v-.84Z"/><path class="cls-3" d="M600.36,213.58h43.96c-.14,.28-.28,.56-.41,.84h-43.55v-.84Z"/><path class="cls-3" d="M599.94,215.67h43.96c-.14,.28-.28,.56-.41,.84h-43.55v-.84Z"/><path class="cls-3" d="M599.52,217.34h43.96c-.14,.28-.28,.56-.41,.84h-43.55v-.84Z"/><path class="cls-3" d="M599.11,219.44h43.96c-.14,.28-.28,.56-.41,.84h-43.55v-.84Z"/><path class="cls-3" d="M598.69,221.53h43.96c-.14,.28-.28,.56-.41,.84h-43.55v-.84Z"/><path class="cls-3" d="M598.27,223.62h43.96c-.14,.28-.28,.56-.41,.84h-43.55v-.84Z"/><path class="cls-3" d="M597.85,225.72h43.96c-.14,.28-.28,.56-.41,.84h-43.55v-.84Z"/><path class="cls-19" d="M647.37,210.23c.4,0,.72-.32,.72-.72v-.23c0-.4-.32-.72-.72-.72h-84.81c-.37,0-.67,.28-.71,.64-1.99,.99-3.36,3.04-3.36,5.41v8.43c0,2.2,1.18,4.12,2.93,5.17v.15c0,.4,.32,.72,.72,.72h85.23c.4,0,.72-.32,.72-.72v-.23c0-.4-.32-.72-.72-.72h-48.68v-17.17h48.68Z"/><path class="cls-23" d="M597.91,210.23h4.39c-1.51,1.41-2.23,2.81-2.6,3.77-.46,1.21-.39,3.04-.24,6.71,.07,1.73,.2,3.48,1.14,4.6,.65,.77,1.35,1.26,1.35,1.26,.82,.57,1.4,.7,1.37,.84-.06,.22-1.48,0-4.51,0-.05,0-.09,0-.11,0-.79-1.39-1.64-3.28-2.11-5.6-1.06-5.24,.44-9.54,1.32-11.57Z"/></g><g><path class="cls-16" d="M635.36,247.86l3.77-17.17h-42.67c-.94,.63-2.21,1.69-2.97,3.35-2.35,5.16,1.67,12.98,1.67,12.98h0s2.39,.8,2.51,.84c2.89,.96,8.27,.14,9.21,0h28.47Z"/><path class="cls-3" d="M594.74,231.95h43.96c-.14,.28-.28,.56-.41,.84h-43.55v-.84Z"/><path class="cls-3" d="M594.74,234.04h43.96c-.14,.28-.28,.56-.41,.84h-43.55v-.84Z"/><path class="cls-3" d="M594.32,236.13h43.96c-.14,.28-.28,.56-.41,.84h-43.55v-.84Z"/><path class="cls-3" d="M593.91,237.81h43.96c-.14,.28-.28,.56-.41,.84h-43.55v-.84Z"/><path class="cls-3" d="M593.49,239.9h43.96c-.14,.28-.28,.56-.41,.84h-43.55v-.84Z"/><path class="cls-3" d="M593.07,241.99h43.96c-.14,.28-.28,.56-.41,.84h-43.55v-.84Z"/><path class="cls-3" d="M592.65,244.09h43.96c-.14,.28-.28,.56-.41,.84h-43.55v-.84Z"/><path class="cls-3" d="M592.23,246.18h43.96c-.14,.28-.28,.56-.41,.84h-43.55v-.84Z"/><path class="cls-24" d="M641.75,230.69c.4,0,.72-.32,.72-.72v-.23c0-.4-.32-.72-.72-.72h-84.81c-.37,0-.67,.28-.71,.64-1.99,.99-3.36,3.04-3.36,5.41v8.43c0,2.2,1.18,4.12,2.93,5.17v.15c0,.4,.32,.72,.72,.72h85.23c.4,0,.72-.32,.72-.72v-.23c0-.4-.32-.72-.72-.72h-48.68v-17.17h48.68Z"/><path class="cls-6" d="M592.29,230.69h4.39c-1.51,1.41-2.23,2.81-2.6,3.77-.46,1.21-.39,3.04-.24,6.71,.07,1.73,.2,3.48,1.14,4.6,.65,.77,1.35,1.26,1.35,1.26,.82,.57,1.4,.7,1.37,.84-.06,.22-1.48,0-4.51,0-.05,0-.09,0-.11,0-.79-1.39-1.64-3.28-2.11-5.6-1.06-5.24,.44-9.54,1.32-11.57Z"/></g><g><path class="cls-16" d="M637.03,261.43l3.77-11.07h-42.67c-.94,.41-2.21,1.09-2.97,2.16-2.35,3.32,1.67,8.37,1.67,8.37h0s2.39,.51,2.51,.54c2.89,.62,8.27,.09,9.21,0h28.47Z"/><path class="cls-3" d="M596.42,251.17h43.96c-.14,.18-.28,.36-.41,.54h-43.55v-.54Z"/><path class="cls-3" d="M596.42,252.52h43.96c-.14,.18-.28,.36-.41,.54h-43.55v-.54Z"/><path class="cls-3" d="M596,253.87h43.96c-.14,.18-.28,.36-.41,.54h-43.55v-.54Z"/><path class="cls-3" d="M595.58,254.95h43.96c-.14,.18-.28,.36-.41,.54h-43.55v-.54Z"/><path class="cls-3" d="M595.16,256.3h43.96c-.14,.18-.28,.36-.41,.54h-43.55v-.54Z"/><path class="cls-3" d="M594.74,257.65h43.96c-.14,.18-.28,.36-.41,.54h-43.55v-.54Z"/><path class="cls-3" d="M594.32,259h43.96c-.14,.18-.28,.36-.41,.54h-43.55v-.54Z"/><path class="cls-3" d="M593.91,260.35h43.96c-.14,.18-.28,.36-.41,.54h-43.55v-.54Z"/><path class="cls-4" d="M643.43,250.36c.4,0,.72-.21,.72-.46v-.15c0-.26-.32-.46-.72-.46h-84.81c-.37,0-.67,.18-.71,.41-1.99,.64-3.36,1.96-3.36,3.49v5.43c0,1.42,1.18,2.65,2.93,3.34v.1c0,.26,.32,.46,.72,.46h85.23c.4,0,.72-.21,.72-.46v-.15c0-.26-.32-.46-.72-.46h-48.68v-11.07h48.68Z"/><path class="cls-23" d="M593.96,250.36h4.39c-1.51,.91-2.23,1.81-2.6,2.43-.46,.78-.39,1.96-.24,4.33,.07,1.12,.2,2.24,1.14,2.96,.65,.5,1.35,.81,1.35,.81,.82,.37,1.4,.45,1.37,.54-.06,.14-1.48,0-4.51,0-.05,0-.09,0-.11,0-.79-.9-1.64-2.11-2.11-3.61-1.06-3.38,.44-6.15,1.32-7.46Z"/></g><g><path class="cls-16" d="M557.17,207.01l-3.77-17.17h42.67c.94,.63,2.21,1.69,2.97,3.35,2.35,5.16-1.67,12.98-1.67,12.98h0s-2.39,.8-2.51,.84c-2.89,.96-8.27,.14-9.21,0h-28.47Z"/><path class="cls-3" d="M597.78,191.1h-43.96c.14,.28,.28,.56,.41,.84h43.55v-.84Z"/><path class="cls-3" d="M597.78,193.19h-43.96c.14,.28,.28,.56,.41,.84h43.55v-.84Z"/><path class="cls-3" d="M598.2,195.29h-43.96c.14,.28,.28,.56,.41,.84h43.55v-.84Z"/><path class="cls-3" d="M598.62,196.96h-43.96c.14,.28,.28,.56,.41,.84h43.55v-.84Z"/><path class="cls-3" d="M599.04,199.05h-43.96c.14,.28,.28,.56,.41,.84h43.55v-.84Z"/><path class="cls-3" d="M599.46,201.15h-43.96c.14,.28,.28,.56,.41,.84h43.55v-.84Z"/><path class="cls-3" d="M599.88,203.24h-43.96c.14,.28,.28,.56,.41,.84h43.55v-.84Z"/><path class="cls-3" d="M600.3,205.33h-43.96c.14,.28,.28,.56,.41,.84h43.55v-.84Z"/><path class="cls-13" d="M636.3,188.8c-.04-.36-.34-.64-.71-.64h-84.81c-.4,0-.72,.32-.72,.72v.23c0,.4,.32,.72,.72,.72h48.68v17.17h-48.68c-.4,0-.72,.32-.72,.72v.23c0,.4,.32,.72,.72,.72h85.23c.4,0,.72-.32,.72-.72v-.15c1.75-1.06,2.93-2.98,2.93-5.17v-8.43c0-2.37-1.37-4.42-3.36-5.41Z"/><path class="cls-15" d="M600.36,189.83h-4.49c1.54,1.41,2.28,2.81,2.65,3.77,.47,1.21,.4,3.04,.25,6.71-.07,1.73-.2,3.48-1.16,4.6-.67,.77-1.38,1.26-1.38,1.26-.84,.57-1.43,.7-1.4,.84,.06,.22,1.51,0,4.6,0,.05,0,.09,0,.12,0,.81-1.39,1.67-3.28,2.15-5.6,1.08-5.24-.45-9.54-1.35-11.57Z"/></g></g><ellipse class="cls-22" cx="351.38" cy="74" rx="3.5" ry="5.5"/><ellipse class="cls-22" cx="369.38" cy="74" rx="3.5" ry="5.5"/></g><path class="cls-29" d="M339.98,65.85c-.59,.21-.78,.16-.84,.05-.38-.64,3.09-5.33,7.96-7.08,0,0,2.67-.96,5.91-.25,1.55,.34,1.8,.78,1.85,1.05,.09,.52-.49,1.1-.85,1.36-1.55,1.12-3.57-.29-5.11-.66-1.82-.43-4.66,.21-8.92,5.51Z"/></g><path class="cls-22" d="M376.33,96.56c.33-.14,.72-.25,.83-.11,.15,.19-.2,.79-1.28,2.06-.89,1.04-2.19,2.44-4,4-2.08,1.19-3.9,1.84-5,2-.33,.05-1.54,.19-3.07,.19h0c-2.73-.22-5.05-1.73-4.93-2.19,.08-.33,1.4-.08,3.77-.15,2.52-.08,4.85-.47,6.23-.85,1.56-.43,4.45-1.55,7.44-4.94Z"/></g></g></svg>