<?xml version="1.0" encoding="UTF-8"?><svg id="Layer_2" xmlns="http://www.w3.org/2000/svg" viewBox="0 0 100 100"><defs><style>.cls-1{fill:#fff;}.cls-2{fill:#ffd13f;}.cls-3{fill:#ffa80a;}.cls-4{fill:#efe3da;}</style></defs><g id="side"><g><g><circle class="cls-1" cx="50" cy="50" r="50"/><circle class="cls-4" cx="50" cy="50" r="46.52"/><circle class="cls-1" cx="50" cy="50" r="43.04"/></g><g><path class="cls-2" d="M61.83,29.89c-1.49-1.67-2.27-3.9-2.35-6.16h-24.48c-3.68,0-6.66,2.98-6.66,6.66v40.6c0,3.68,2.98,6.66,6.66,6.66h30.23c3.68,0,6.66-2.98,6.66-6.66V36.13c-1.68-.14-3.1-.67-4.26-1.46-2.84-.64-4.75-2.49-5.79-4.78Z"/><rect class="cls-1" x="36.63" y="43.43" width="26.96" height="15.55"/><rect class="cls-2" x="41.48" y="46.54" width="17.66" height="10.19"/><polygon class="cls-3" points="59.44 36.17 71.88 36.17 59.44 23.73 59.44 36.17"/><line class="cls-4" x1="59.44" y1="23.73" x2="71.88" y2="36.17"/></g></g></g></svg>