<?xml version="1.0" encoding="UTF-8"?><svg id="Layer_2" xmlns="http://www.w3.org/2000/svg" viewBox="0 0 115 115"><defs><style>.cls-1{fill:#fff;}.cls-2{fill:#efe3da;}.cls-3{fill:#3f95ff;}</style></defs><g id="side"><g><g><circle class="cls-1" cx="57.5" cy="57.5" r="57.5"/><circle class="cls-2" cx="57.5" cy="57.5" r="53.5"/><circle class="cls-1" cx="57.5" cy="57.5" r="49.5"/></g><path class="cls-3" d="M81.41,28H34.81c-3.66,0-6.66,3-6.66,6.66v46.61c0,3.67,3,6.66,6.66,6.66h23.3v-23.3h-6.66v-8.24h6.66v-6.82c0-7.2,4.03-12.26,12.54-12.26h6v8.68h-3.98c-3.31,0-4.57,2.48-4.57,4.79v5.63h8.55l-1.89,8.24h-6.66v23.3h13.32c3.66,0,6.66-2.99,6.66-6.66V34.66c0-3.66-3-6.66-6.66-6.66Z"/></g></g></svg>