<?xml version="1.0" encoding="UTF-8"?><svg id="Layer_2" xmlns="http://www.w3.org/2000/svg" viewBox="0 0 115 115"><defs><style>.cls-1{fill:#fc554a;}.cls-2{fill:#fff;}.cls-3{fill:#efe3da;}</style></defs><g id="side"><g><g><circle class="cls-2" cx="57.5" cy="57.5" r="57.5"/><circle class="cls-3" cx="57.5" cy="57.5" r="53.5"/><circle class="cls-2" cx="57.5" cy="57.5" r="49.5"/></g><g><path class="cls-1" d="M60.98,25h-5.96c-16.03,0-29.02,12.99-29.02,29.02v5.96c0,16.03,12.99,29.02,29.02,29.02h5.96c16.03,0,29.02-12.99,29.02-29.02v-5.96c0-16.03-12.99-29.02-29.02-29.02Zm16.53,41.19c0,5.18-4.2,9.39-9.39,9.39h-19.87c-5.18,0-9.39-4.2-9.39-9.39v-19.87c0-5.18,4.2-9.39,9.39-9.39h19.87c5.18,0,9.39,4.2,9.39,9.39v19.87Z"/><rect class="cls-1" x="46.51" y="45.33" width="23.22" height="23.22" rx="11.61" ry="11.61"/><circle class="cls-1" cx="69.93" cy="44.28" r="2.58"/></g></g></g></svg>