<?xml version="1.0" encoding="UTF-8"?><svg id="Layer_2" xmlns="http://www.w3.org/2000/svg" viewBox="0 0 115 115"><defs><style>.cls-1{fill:#f8a07b;}.cls-2{fill:#f99f7d;}.cls-3{fill:#e6eaf2;}.cls-4{fill:#e58061;}.cls-5{fill:#fff;}.cls-6{fill:#ffcc58;}.cls-7{fill:#efe3da;}.cls-8{fill:#bf956d;}.cls-8,.cls-9{stroke:#bf956d;stroke-miterlimit:10;}.cls-9{fill:#604b37;}</style></defs><g id="forside_temaer"><g><g><circle class="cls-5" cx="57.5" cy="57.5" r="57.5"/><circle class="cls-7" cx="57.5" cy="57.5" r="53.5"/><circle class="cls-5" cx="57.5" cy="57.5" r="49.5"/></g><g><path class="cls-8" d="M28.2,75.5c.8-4.23,1.65-10.22,1.78-17.45,.16-9.07-.98-11.83,0-19.23,.82-6.23,1.55-11.71,5.7-16.91,5.41-6.78,13.01-8.54,15.49-9.08,2.78-.6,10.03-2.17,17.07,1.63,5.4,2.92,8.21,7.67,9.45,9.76,2.18,3.68,1.62,4.66,4.81,10.86,2.58,5.02,3.24,4.95,4.57,8.29,1.64,4.12,1.42,6.19,2.37,11.29,1.62,8.65,3.21,7.77,4.09,13.89,1.4,9.67-1.42,19.85-2.55,19.81-.07,0-.11-.04-.13-.05-.84-.63-18.8-4.38-62.66-12.82Z"/><path class="cls-9" d="M69.59,77.19c-3.61,3.6-9.84,3.51-13.89,2.14-6.1-2.07-8.69-7.58-13.89-6.76-1.38,.22-2.14,.75-2.94,.27-1.91-1.16,.07-5.6,.36-11.93,.46-10.04-3.78-14.78-.53-18.87,.27-.34,1.86-2.33,3.83-2.23,1.61,.09,2.7,1.54,3.2,2.14,4.3,5.04,16.82,6.89,22.07,2.31,2.06-1.8,2.59-4.22,3.29-4.01,.2,.06,.81,.46,0,8.19-.78,7.46-1.5,8.53-.89,11.57,.68,3.35,1.77,3.17,2.26,6.24,.09,.59,1.02,7.05-2.88,10.94Z"/><path class="cls-3" d="M68.07,16.75s5.87,2.67,8.37,8.54c.1,.23,.46,1.31,.31,1.39-.22,.11-1.16-2.08-2.98-4.41-2.46-3.17-5.67-5.5-5.7-5.52h0Z"/><path class="cls-6" d="M69.53,95.33c3.03-2.34,5.46-6.72,7.46-9.59,.13-.19,.28-.35,.44-.49-.06-1.01-.13-2.12-.21-3.36-.51-7.95-1.16-7.48-.91-9.26,.05-.33,.23-1.46-.3-2.14-.45-.57-1.19-.54-1.67-.53-1.48,0-2.93-.56-4.4-.71-2.23-.22-4.45-.49-6.68-.71,0,0-7.59-.55-15.79,.18-.35,.03-5.12,.49-10.78,2.67-1.82,.7-2.8,1.22-3.64,2.31-1.44,1.86-1.58,4.23-1.53,8.91,1.51,2.85,2.75,5.9,4.3,8.7,5.11,4.26,12.66,3.9,18.63,4.12,5,.18,10.09,.6,15.08-.1Z"/><path class="cls-1" d="M47.69,62.24c1.06,.88,2.68,1.93,4.72,2.03,3.43,.17,5.77-2.43,7.38-1.32,.44,.31,.21,.46,1.25,2.67,.56,1.19,1.09,2.1,2.14,3.92,1.22,2.12,1.35,2.15,1.6,2.85,.52,1.44,.64,2.92,.53,3.92-.38,3.47-4.23,6.04-7.16,7.08-4.37,1.56-9.44,.34-12.42-2.81-1.74-1.83-3.64-5.01-2.67-6.76,.33-.6,.8-.68,1.6-1.78,.7-.96,1.05-1.87,1.42-3.03,.83-2.58,1.32-5.12,1.6-6.76Z"/><path class="cls-4" d="M47.87,62.59s2.69,1.88,6.73,1.89c2.33,0,4.93-1.96,5.56-1.18,.12,.15,.07,.28,.36,1.07,.2,.55,.4,.98,.53,1.25,0,0-4.81,4.81-13.17-3.03Z"/><ellipse class="cls-2" cx="54.37" cy="40.34" rx="16.82" ry="24.21"/><path class="cls-8" d="M47.25,26.72c.75,1.78,1.64,3.07,2.31,3.92,1.87,2.35,3.98,3.66,5.87,4.81,.73,.44,1.07,.61,3.74,1.96,6.89,3.48,8.4,4.26,10.15,5.87,.85,.78,1.77,1.77,2.67,3.03,.59-5.1,1.19-10.21,1.78-15.31-1.64-3.4-6.12-11.6-14.24-14.6-1.84-.68-5-1.85-7.65-.36-2.22,1.24-3.18,3.83-3.74,5.34-.81,2.17-.92,4.11-.89,5.34Z"/><path class="cls-8" d="M35.5,38.29c8.43-5.08,11.05-9,11.75-11.75,.11-.45,.29-1.32,.73-2.6,1.78-5.29,4.41-7.2,3.9-7.9-.65-.9-6.66,.92-10.86,5.34-5.49,5.79-5.65,13.67-5.52,16.91Z"/></g></g></g></svg>