<?xml version="1.0" encoding="UTF-8"?><svg id="Layer_2" xmlns="http://www.w3.org/2000/svg" viewBox="0 0 186 298.56"><defs><style>.cls-1{fill:#e9d4c4;}.cls-2{fill:#ceac96;}.cls-3{fill:#a59a92;}.cls-4{fill:#ddbeab;}.cls-5{fill:#d1b3a1;}</style></defs><g id="plante"><g><ellipse class="cls-1" cx="108.34" cy="133.28" rx="134.76" ry="58.03" transform="translate(-40.9 218.3) rotate(-80.56)"/><path class="cls-5" d="M87.94,260.43h0c-1.92-.24-3.24-1.9-2.96-3.7L124.37,8.67c.29-1.8,2.07-3.07,3.99-2.83h0c1.92,.24,3.24,1.9,2.96,3.7l-39.39,248.06c-.29,1.8-2.07,3.07-3.99,2.83Z"/><path class="cls-5" d="M114.38,94.85h0c-1.62,1.02-3.8,.62-4.86-.89l-29.65-42.09c-1.06-1.51-.61-3.56,1.02-4.57h0c1.62-1.02,3.8-.62,4.86,.89l29.65,42.09c1.06,1.51,.61,3.56-1.02,4.57Z"/><path class="cls-5" d="M94.57,213.17h0c-1.45-1.19-1.59-3.27-.3-4.65l47.32-50.75c1.29-1.38,3.51-1.54,4.96-.35h0c1.45,1.19,1.59,3.27,.3,4.65l-47.32,50.75c-1.29,1.38-3.51,1.54-4.96,.35Z"/><path class="cls-5" d="M106.73,140.98h0c-1.45-1.19-1.59-3.27-.3-4.65l35.9-38.51c1.29-1.38,3.51-1.54,4.96-.35h0c1.45,1.19,1.59,3.27,.3,4.65l-35.9,38.51c-1.29,1.38-3.51,1.54-4.96,.35Z"/><path class="cls-5" d="M102.43,174.12h0c-1.62,1.02-3.8,.62-4.86-.89l-29.65-42.09c-1.06-1.51-.61-3.56,1.02-4.57h0c1.62-1.02,3.8-.62,4.86,.89l29.65,42.09c1.06,1.51,.61,3.56-1.02,4.57Z"/></g><g><ellipse class="cls-4" cx="141.57" cy="213.72" rx="89.89" ry="33" transform="translate(-108.53 270.01) rotate(-69.16)"/><path class="cls-2" d="M110.22,293.67h0c-1-.46-1.46-1.75-1.01-2.88l60.95-156.03c.44-1.13,1.61-1.68,2.62-1.23h0c1,.46,1.46,1.75,1.01,2.88l-60.95,156.03c-.44,1.13-1.61,1.68-2.62,1.23Z"/><path class="cls-2" d="M150.98,189.54h0c-1.04,.41-2.16-.19-2.5-1.34l-9.36-32.13c-.34-1.15,.24-2.42,1.28-2.83h0c1.04-.41,2.16,.19,2.5,1.34l9.36,32.13c.34,1.15-.24,2.42-1.28,2.83Z"/><path class="cls-2" d="M121.35,263.81h0c-.6-1-.34-2.38,.58-3.08l33.76-25.81c.92-.7,2.15-.46,2.75,.54h0c.6,1,.34,2.38-.58,3.08l-33.76,25.81c-.92,.7-2.15,.46-2.75-.54Z"/><path class="cls-2" d="M139.47,218.5h0c-.6-1-.34-2.38,.58-3.08l25.61-19.59c.92-.7,2.15-.46,2.75,.54h0c.6,1,.34,2.38-.58,3.08l-25.61,19.59c-.92,.7-2.15,.46-2.75-.54Z"/><path class="cls-2" d="M131.85,239.5h0c-1.04,.41-2.16-.19-2.5-1.34l-9.36-32.13c-.34-1.15,.24-2.42,1.28-2.83h0c1.04-.41,2.16,.19,2.5,1.34l9.36,32.13c.34,1.15-.24,2.42-1.28,2.83Z"/></g><g><ellipse class="cls-3" cx="39.52" cy="156.71" rx="120.88" ry="39.4" transform="translate(-118.17 192.15) rotate(-88.51)"/><path class="cls-5" d="M34.74,272.02h0c-1.31-.21-2.31-1.7-2.25-3.34L41.53,43.74c.07-1.64,1.18-2.79,2.48-2.58h0c1.31,.21,2.31,1.7,2.25,3.34l-9.04,224.94c-.07,1.64-1.18,2.79-2.48,2.58Z"/><path class="cls-5" d="M40.87,121.87h0c-1.02,.93-2.51,.58-3.33-.78L14.67,83.12c-.82-1.36-.66-3.22,.36-4.15h0c1.02-.93,2.51-.58,3.33,.78l22.87,37.97c.82,1.36,.66,3.22-.36,4.15Z"/><path class="cls-5" d="M35.87,229.17h0c-1.06-1.07-1.3-2.95-.53-4.21l28.22-46.23c.77-1.26,2.25-1.41,3.31-.34h0c1.06,1.07,1.3,2.95,.53,4.21l-28.22,46.23c-.77,1.26-2.25,1.41-3.31,.34Z"/><path class="cls-5" d="M38.98,163.7h0c-1.06-1.07-1.3-2.95-.53-4.21l21.41-35.08c.77-1.26,2.25-1.41,3.31-.34h0c1.06,1.07,1.3,2.95,.53,4.21l-21.41,35.08c-.77,1.26-2.25,1.41-3.31,.34Z"/><path class="cls-5" d="M38.41,193.75h0c-1.02,.93-2.51,.58-3.33-.78l-22.87-37.97c-.82-1.36-.66-3.22,.36-4.15h0c1.02-.93,2.51-.58,3.33,.78l22.87,37.97c.82,1.36,.66,3.22-.36,4.15Z"/></g></g></svg>