<?xml version="1.0" encoding="UTF-8"?><svg id="Layer_2" xmlns="http://www.w3.org/2000/svg" viewBox="0 0 115 115"><defs><style>.cls-1{fill:#fff;}.cls-2{fill:#efe3da;}.cls-3{fill:#453fff;}</style></defs><g id="side"><g><g><circle class="cls-1" cx="57.5" cy="57.5" r="57.5"/><circle class="cls-2" cx="57.5" cy="57.5" r="53.5"/><circle class="cls-1" cx="57.5" cy="57.5" r="49.5"/></g><path class="cls-3" d="M71.06,63.66c.25-1.93,.45-3.87,.45-5.86s-.19-3.93-.45-5.86h10.75c.51,1.88,.83,3.84,.83,5.86s-.32,3.99-.83,5.86m-16.38,16.29c1.91-3.25,3.37-6.77,4.39-10.43h9.38c-3.08,4.89-7.97,8.59-13.77,10.43m-.8-16.29h-14.89c-.32-1.93-.51-3.87-.51-5.86s.19-3.96,.51-5.86h14.89c.29,1.9,.51,3.87,.51,5.86s-.22,3.93-.51,5.86m-7.44,17.46c-2.64-3.52-4.77-7.41-6.08-11.6h12.15c-1.3,4.19-3.44,8.09-6.08,11.6m-12.72-35.05h-9.29c3.05-4.9,7.94-8.61,13.74-10.43-1.91,3.25-3.34,6.77-4.45,10.43m-9.29,23.44h9.29c1.11,3.66,2.54,7.18,4.45,10.43-5.79-1.84-10.67-5.54-13.74-10.43m-2.61-5.86c-.51-1.88-.83-3.84-.83-5.86s.32-3.99,.83-5.86h10.75c-.25,1.93-.45,3.87-.45,5.86s.19,3.93,.45,5.86m13.87-29.22c2.64,3.52,4.77,7.44,6.08,11.63h-12.15c1.3-4.19,3.44-8.12,6.08-11.63m22.01,11.63h-9.38c-1-3.63-2.47-7.13-4.39-10.43,5.85,1.85,10.72,5.57,13.77,10.43m-22.01-17.58c-17.59,0-31.81,13.19-31.81,29.3s14.24,29.3,31.81,29.3,31.81-13.12,31.81-29.3-14.24-29.3-31.81-29.3Z"/></g></g></svg>