<?xml version="1.0" encoding="UTF-8"?><svg id="Layer_2" xmlns="http://www.w3.org/2000/svg" viewBox="0 0 100 100"><defs><style>.cls-1{fill:#fff;}.cls-2{fill:#efe3da;}.cls-3{fill:#453fff;}</style></defs><g id="side"><g><g><circle class="cls-1" cx="50" cy="50" r="50"/><circle class="cls-2" cx="50" cy="50" r="46.52"/><circle class="cls-1" cx="50" cy="50" r="43.04"/></g><path class="cls-3" d="M61.84,55.18c.23-1.85,.4-3.69,.4-5.6s-.17-3.75-.4-5.6h9.62c.46,1.79,.74,3.67,.74,5.6s-.28,3.81-.74,5.6m-14.65,15.56c1.71-3.11,3.02-6.47,3.93-9.96h8.39c-2.76,4.67-7.13,8.21-12.32,9.96m-.71-15.56h-13.32c-.28-1.85-.46-3.69-.46-5.6s.17-3.78,.46-5.6h13.32c.26,1.82,.46,3.69,.46,5.6s-.2,3.75-.46,5.6m-6.66,16.68c-2.36-3.36-4.27-7.08-5.43-11.08h10.87c-1.17,4-3.07,7.73-5.43,11.08m-11.38-33.48h-8.31c2.73-4.68,7.1-8.23,12.29-9.96-1.71,3.11-2.99,6.47-3.98,9.96m-8.31,22.39h8.31c1,3.5,2.28,6.86,3.98,9.96-5.18-1.76-9.55-5.3-12.29-9.96m-2.33-5.6c-.46-1.79-.74-3.67-.74-5.6s.28-3.81,.74-5.6h9.62c-.23,1.85-.4,3.69-.4,5.6s.17,3.75,.4,5.6m12.41-27.91c2.36,3.36,4.27,7.11,5.43,11.11h-10.87c1.17-4,3.07-7.75,5.43-11.11m19.69,11.11h-8.39c-.89-3.47-2.21-6.81-3.93-9.96,5.24,1.76,9.59,5.32,12.32,9.96m-19.69-16.79c-15.73,0-28.45,12.6-28.45,27.99s12.74,27.99,28.45,27.99,28.45-12.53,28.45-27.99-12.74-27.99-28.45-27.99Z"/></g></g></svg>