<?xml version="1.0" encoding="UTF-8"?><svg id="Layer_2" xmlns="http://www.w3.org/2000/svg" viewBox="0 0 115 115"><defs><style>.cls-1{fill:#fff;}.cls-2{fill:#fd94ff;}.cls-3{fill:#efe3da;}</style></defs><g id="side"><g><g><circle class="cls-1" cx="57.5" cy="57.5" r="57.5"/><circle class="cls-3" cx="57.5" cy="57.5" r="53.5"/><circle class="cls-1" cx="57.5" cy="57.5" r="49.5"/></g><polygon class="cls-2" points="54 75.57 41.14 56.07 50.57 36.23 44.45 33.24 36.76 49.41 26.6 34 21.76 37.27 33.83 55.58 24.23 75.78 30.35 78.77 38.21 62.23 49.16 78.84 54 75.57"/><path class="cls-2" d="M91.8,54.81c-.54-9.64-7.72-15.28-9.29-16.51-10.65-8.38-24.05-4.42-25.44-3.99l-.07,43.05c10.86,3.23,22.04,.86,28.7-6.38,1.75-1.91,6.57-7.82,6.1-16.17Zm-11.57,8.81c-3.55,3.86-9.5,5.12-15.29,3.4l.04-22.93c.74-.23,7.88-2.34,13.55,2.12,.84,.66,4.66,3.66,4.95,8.8,.25,4.45-2.31,7.6-3.25,8.62Z"/></g></g></svg>